<?xml version="1.0" encoding="utf-8"?>
<!-- Generator: Adobe Illustrator 22.1.0, SVG Export Plug-In . SVG Version: 6.00 Build 0)  -->
<svg version="1.1" id="Layer_1" xmlns="http://www.w3.org/2000/svg" xmlns:xlink="http://www.w3.org/1999/xlink" x="0px" y="0px"
	 viewBox="0 0 226.8 58" style="enable-background:new 0 0 226.8 58;" xml:space="preserve">
<style type="text/css">
	.st0{fill:none;stroke:#000000;stroke-width:0.75;stroke-miterlimit:10;}
	.st1{fill:#1F0500;}
	.st2{font-family:'Gabriola';}
	.st3{font-size:30px;}
	.st4{letter-spacing:1;}
</style>
<title>Catalog</title>
<path class="st0" d="M3.3,0.4h220.1c1.6,0,2.9,1.4,2.9,3v51.2c0,1.7-1.3,3-2.9,3H3.3c-1.6,0-2.9-1.4-2.9-3V3.4
	C0.4,1.7,1.7,0.4,3.3,0.4z"/>
<text transform="matrix(1 0 0 1 69.87 37.77)" class="st1 st2 st3 st4">К</text>
<text transform="matrix(1 0 0 1 85.46 37.77)" class="st1 st2 st3">А</text>
<text transform="matrix(1 0 0 1 100.21 37.77)" class="st1 st2 st3">Т</text>
<text transform="matrix(1 0 0 1 112.05 37.77)" class="st1 st2 st3 st4">А</text>
<text transform="matrix(1 0 0 1 128.41 37.77)" class="st1 st2 st3 st4">Л</text>
<text transform="matrix(1 0 0 1 144.23 37.77)" class="st1 st2 st3 st4">О</text>
<text transform="matrix(1 0 0 1 161.64 37.77)" class="st1 st2 st3 st4">Г</text>
</svg>
