<?xml version="1.0" encoding="utf-8"?>
<!-- Generator: Adobe Illustrator 22.1.0, SVG Export Plug-In . SVG Version: 6.00 Build 0)  -->
<svg version="1.1" id="Layer_1" xmlns="http://www.w3.org/2000/svg" xmlns:xlink="http://www.w3.org/1999/xlink" x="0px" y="0px"
	 viewBox="0 0 226.8 58" style="enable-background:new 0 0 226.8 58;" xml:space="preserve">
<style type="text/css">
	.st0{fill:none;stroke:#000000;stroke-width:0.75;stroke-miterlimit:10;}
	.st1{enable-background:new    ;}
	.st2{fill:#1F0500;}
</style>
<title>Catalog</title>
<path class="st0" d="M3.3,0.4h220.1c1.6,0,2.9,1.4,2.9,3v51.2c0,1.7-1.3,3-2.9,3H3.3c-1.6,0-2.9-1.4-2.9-3V3.4
	C0.4,1.7,1.7,0.4,3.3,0.4z"/>
<g class="st1">
	<path class="st2" d="M72.6,23.3c0-0.2,0-0.4,0-0.6c0-0.2-0.1-0.3-0.2-0.4c-0.1-0.1-0.2-0.2-0.4-0.2c-0.2,0-0.4-0.1-0.6-0.1
		c-0.3,0-0.7,0-1.2,0.1l-0.1-0.6c0.7-0.2,1.3-0.3,1.8-0.4c0.5-0.1,0.9-0.1,1.2-0.1c0.3,0,0.6,0,0.8,0.1c0.2,0.1,0.3,0.2,0.4,0.4
		c0.1,0.2,0.1,0.4,0.2,0.6c0,0.2,0,0.5,0,0.8c0,0.1,0,0.3,0,0.6c0,0.3,0,0.7,0,1.1c0,0.5,0,1,0,1.6c0,0.6,0,1.2-0.1,1.9
		c0,0.7,0,1.4-0.1,2.2c0,0.8,0,1.6-0.1,2.4c0,0.8-0.1,1.7-0.1,2.5c0,0.9-0.1,1.7-0.1,2.5L72.4,38l-0.1,0c0.1-1.4,0.1-2.7,0.2-4
		c0-1.3,0.1-2.5,0.1-3.7c0-1.2,0.1-2.4,0.1-3.5C72.6,25.6,72.6,24.4,72.6,23.3z M74.6,29.5c0.9-0.8,1.7-1.5,2.4-2.1
		c0.7-0.6,1.3-1.2,1.8-1.7c0.5-0.5,0.9-0.9,1.3-1.3s0.6-0.8,0.8-1.1c0.2-0.3,0.3-0.7,0.4-1c0.1-0.3,0.1-0.6,0.1-1
		c0-0.2,0-0.3-0.1-0.5l0-0.1c0.2-0.1,0.4-0.1,0.6-0.1c0.2,0,0.3,0,0.5,0.1c0.1,0.1,0.3,0.1,0.4,0.2c0.1,0.1,0.2,0.2,0.3,0.4
		s0.1,0.3,0.1,0.5c0,0.2,0,0.4-0.1,0.6c-0.1,0.2-0.2,0.5-0.4,0.7s-0.5,0.6-0.8,1c-0.3,0.4-0.8,0.8-1.3,1.2c-0.5,0.5-1.1,1-1.8,1.6
		c-0.7,0.6-1.5,1.3-2.3,2c0.8,1.2,1.5,2.2,2.1,3s1.2,1.5,1.6,2.1c0.5,0.6,0.9,1,1.2,1.4c0.3,0.4,0.6,0.6,0.9,0.8
		c0.3,0.2,0.5,0.3,0.7,0.4s0.4,0.1,0.6,0.1c0.2,0,0.4,0,0.6-0.1c0.2,0,0.4-0.1,0.7-0.2l0.2,0.6c-0.3,0.1-0.5,0.2-0.8,0.4
		c-0.3,0.1-0.5,0.2-0.8,0.3c-0.3,0.1-0.5,0.1-0.7,0.2c-0.2,0-0.4,0.1-0.6,0.1c-0.2,0-0.4-0.1-0.6-0.2s-0.5-0.3-0.7-0.5
		s-0.6-0.6-0.9-0.9c-0.3-0.4-0.7-0.9-1.2-1.4c-0.4-0.6-0.9-1.2-1.5-2s-1.2-1.7-2-2.7c-0.1-0.1-0.2-0.3-0.3-0.4
		C74.8,29.8,74.7,29.7,74.6,29.5L74.6,29.5z"/>
</g>
<g class="st1">
	<path class="st2" d="M88.4,33.8c-0.2,0.5-0.3,0.9-0.5,1.3c-0.1,0.4-0.2,0.7-0.3,1s-0.2,0.5-0.3,0.7c-0.1,0.2-0.1,0.4-0.2,0.5
		c-0.1,0.2-0.2,0.3-0.3,0.4s-0.2,0.2-0.3,0.2c-0.1,0-0.2,0.1-0.4,0.1c-0.1,0-0.3,0-0.4,0c-0.1,0-0.2,0-0.3,0c-0.1,0-0.2,0-0.3,0
		L85,38c0.6-1.3,1.1-2.5,1.7-3.6s1-2.3,1.5-3.3c-0.1-0.2-0.2-0.3-0.2-0.4c0-0.2,0.2-0.3,0.5-0.3c0.9-2,1.7-3.7,2.4-5.2
		c0.7-1.5,1.3-2.7,1.8-3.8c0-0.1,0.1-0.2,0.2-0.2c0.1-0.1,0.2-0.1,0.3-0.1s0.2-0.1,0.3-0.1s0.2,0,0.3,0c0.1,0,0.3,0,0.4,0
		s0.3,0.1,0.4,0.1c0.3,1.7,0.6,3.2,0.8,4.6c0.3,1.4,0.5,2.6,0.7,3.6c0.2,1.1,0.4,2,0.6,2.8c0.2,0.8,0.4,1.5,0.6,2
		c0.2,0.6,0.4,1,0.5,1.4s0.4,0.7,0.6,0.9c0.2,0.2,0.4,0.4,0.6,0.4s0.4,0.1,0.7,0.1c0.2,0,0.3,0,0.5-0.1s0.4-0.1,0.6-0.2l0.2,0.6
		c-0.6,0.3-1.1,0.5-1.6,0.6s-1,0.2-1.4,0.2c-0.2,0-0.4,0-0.6-0.1c-0.2-0.1-0.4-0.2-0.6-0.4c-0.2-0.2-0.4-0.5-0.5-0.8
		c-0.2-0.3-0.3-0.8-0.5-1.3s-0.4-1.1-0.5-1.8c-0.2-0.7-0.4-1.5-0.6-2.5c-0.9,0-1.8,0-2.7,0.1c-0.9,0-1.8,0.1-2.7,0.1
		c-0.2,0.5-0.4,1-0.5,1.4C88.6,33.1,88.5,33.5,88.4,33.8z M94.5,30.2c-0.1-0.5-0.2-1-0.3-1.6c-0.1-0.6-0.2-1.2-0.4-1.9
		c-0.1-0.7-0.2-1.3-0.4-2.1c-0.1-0.7-0.3-1.4-0.4-2.2h0c-0.7,1.5-1.3,2.8-1.9,4.2s-1,2.5-1.5,3.6c0.8,0,1.7,0,2.4,0
		C92.9,30.2,93.7,30.2,94.5,30.2z"/>
</g>
<g class="st1">
	<path class="st2" d="M101,25.3l-0.7,0c0-0.6,0-1.1,0-1.6c0-0.5,0-0.9,0.1-1.2c0-0.3,0.1-0.6,0.3-0.8c0.1-0.2,0.3-0.4,0.6-0.5
		s0.6-0.2,1.1-0.2c0.3,0,0.6,0,1,0s0.7,0,1.1,0s0.8,0,1.2,0s0.8,0,1.2,0c0.7,0,1.3,0,1.8,0c0.5,0,1,0,1.4,0s0.7,0,1,0s0.6,0,0.8,0
		s0.5,0,0.7-0.1c0.2,0,0.4-0.1,0.6-0.1c0.1,0.2,0.1,0.4,0.1,0.6c0,0.3-0.1,0.6-0.4,0.7c-0.3,0.2-0.7,0.3-1.2,0.3
		c-0.5,0-1.1,0-1.8-0.1c-0.7-0.1-1.4-0.1-2.3-0.2c0,0.7,0,1.5-0.1,2.3c0,0.8,0,1.7-0.1,2.5c0,0.9-0.1,1.8-0.1,2.7
		c0,0.9-0.1,1.8-0.1,2.7c0,0.9-0.1,1.8-0.1,2.7s-0.1,1.8-0.1,2.6l-1.7,0.2l-0.1,0c0-0.9,0.1-1.8,0.1-2.7c0-0.9,0.1-1.7,0.1-2.5
		s0.1-1.6,0.1-2.5c0-0.8,0-1.7,0.1-2.5s0-1.8,0-2.7c0-0.9,0-1.9,0-3c-0.3,0-0.6,0-0.8,0c-0.3,0-0.6,0-0.9,0s-0.6,0-0.8,0
		s-0.5,0-0.7,0.1s-0.4,0.2-0.6,0.3c-0.2,0.1-0.3,0.3-0.4,0.5c-0.1,0.2-0.2,0.5-0.3,0.9c-0.1,0.4-0.1,0.8-0.1,1.3V25.3z"/>
</g>
<g class="st1">
	<path class="st2" d="M115,33.8c-0.2,0.5-0.3,0.9-0.5,1.3c-0.1,0.4-0.2,0.7-0.3,1s-0.2,0.5-0.3,0.7c-0.1,0.2-0.1,0.4-0.2,0.5
		c-0.1,0.2-0.2,0.3-0.3,0.4s-0.2,0.2-0.3,0.2c-0.1,0-0.2,0.1-0.4,0.1c-0.1,0-0.3,0-0.4,0c-0.1,0-0.2,0-0.3,0c-0.1,0-0.2,0-0.3,0
		l-0.1-0.1c0.6-1.3,1.1-2.5,1.7-3.6c0.5-1.2,1-2.3,1.5-3.3c-0.1-0.2-0.2-0.3-0.2-0.4c0-0.2,0.2-0.3,0.5-0.3c0.9-2,1.7-3.7,2.4-5.2
		c0.7-1.5,1.3-2.7,1.8-3.8c0-0.1,0.1-0.2,0.2-0.2c0.1-0.1,0.2-0.1,0.3-0.1s0.2-0.1,0.3-0.1s0.2,0,0.3,0c0.1,0,0.3,0,0.4,0
		s0.3,0.1,0.4,0.1c0.3,1.7,0.6,3.2,0.8,4.6c0.3,1.4,0.5,2.6,0.7,3.6c0.2,1.1,0.4,2,0.6,2.8c0.2,0.8,0.4,1.5,0.6,2
		c0.2,0.6,0.4,1,0.5,1.4s0.4,0.7,0.6,0.9c0.2,0.2,0.4,0.4,0.6,0.4s0.4,0.1,0.7,0.1c0.2,0,0.3,0,0.5-0.1s0.4-0.1,0.6-0.2l0.2,0.6
		c-0.6,0.3-1.1,0.5-1.6,0.6s-1,0.2-1.4,0.2c-0.2,0-0.4,0-0.6-0.1c-0.2-0.1-0.4-0.2-0.6-0.4c-0.2-0.2-0.4-0.5-0.5-0.8
		c-0.2-0.3-0.3-0.8-0.5-1.3s-0.4-1.1-0.5-1.8c-0.2-0.7-0.4-1.5-0.6-2.5c-0.9,0-1.8,0-2.7,0.1c-0.9,0-1.8,0.1-2.7,0.1
		c-0.2,0.5-0.4,1-0.5,1.4C115.2,33.1,115.1,33.5,115,33.8z M121.1,30.2c-0.1-0.5-0.2-1-0.3-1.6c-0.1-0.6-0.2-1.2-0.4-1.9
		c-0.1-0.7-0.2-1.3-0.4-2.1c-0.1-0.7-0.3-1.4-0.4-2.2h0c-0.7,1.5-1.3,2.8-1.9,4.2s-1,2.5-1.5,3.6c0.8,0,1.7,0,2.4,0
		C119.5,30.2,120.3,30.2,121.1,30.2z"/>
</g>
<g class="st1">
	<path class="st2" d="M137.4,21c0.3,1.7,0.6,3.2,0.9,4.6c0.3,1.4,0.5,2.6,0.7,3.6c0.2,1.1,0.4,2,0.6,2.8c0.2,0.8,0.4,1.5,0.6,2
		c0.2,0.6,0.4,1,0.5,1.4s0.4,0.7,0.5,0.9c0.2,0.2,0.4,0.4,0.6,0.4c0.2,0.1,0.4,0.1,0.7,0.1c0.2,0,0.3,0,0.5-0.1
		c0.2,0,0.3-0.1,0.6-0.2l0.2,0.6c-0.6,0.3-1.1,0.5-1.6,0.6c-0.5,0.1-0.9,0.2-1.3,0.2c-0.2,0-0.4,0-0.6-0.1c-0.2-0.1-0.4-0.2-0.6-0.5
		c-0.2-0.2-0.4-0.5-0.5-0.9s-0.4-0.8-0.5-1.4s-0.4-1.2-0.6-2c-0.2-0.8-0.4-1.7-0.6-2.7c-0.2-1-0.5-2.2-0.7-3.5s-0.5-2.8-0.8-4.5h0
		c-0.4,0.8-0.8,1.7-1.2,2.6c-0.4,0.9-0.8,1.8-1.2,2.7s-0.7,1.7-1.1,2.6c-0.3,0.8-0.6,1.6-0.9,2.4c-0.2,0.8-0.4,1.4-0.6,2.1
		c-0.1,0.6-0.2,1.2-0.2,1.6c0,0.3,0,0.6,0.1,0.8c0.1,0.3,0.2,0.5,0.4,0.6l0,0.1c-0.2,0.1-0.3,0.1-0.5,0.2c-0.2,0-0.3,0.1-0.5,0.1
		c-0.2,0-0.3,0-0.5-0.1c-0.2,0-0.3-0.1-0.4-0.2c-0.1-0.1-0.2-0.2-0.3-0.4c-0.1-0.2-0.1-0.4-0.1-0.6c0-0.3,0.1-0.6,0.2-1.1
		c0.1-0.5,0.3-1.1,0.6-1.8c0.3-0.7,0.6-1.5,1-2.5c0.4-0.9,0.8-1.9,1.3-3c0.5-1.1,1-2.2,1.6-3.4c0.6-1.2,1.2-2.5,1.9-3.8
		c0-0.1,0.1-0.2,0.2-0.2s0.2-0.1,0.3-0.1c0.1,0,0.2-0.1,0.3-0.1c0.1,0,0.2,0,0.3,0c0.1,0,0.3,0,0.4,0S137.2,21,137.4,21z"/>
</g>
<g class="st1">
	<path class="st2" d="M151.9,38.2c-1,0-1.9-0.2-2.7-0.5c-0.8-0.3-1.5-0.8-2.1-1.5c-0.6-0.7-1.1-1.5-1.4-2.5c-0.3-1-0.5-2.2-0.5-3.5
		c0-0.8,0.1-1.7,0.2-2.5s0.3-1.6,0.6-2.3c0.3-0.7,0.6-1.4,1-2c0.4-0.6,0.9-1.1,1.4-1.5s1.2-0.8,1.8-1s1.4-0.4,2.2-0.4
		c1,0,1.9,0.2,2.7,0.5s1.5,0.8,2.1,1.5c0.6,0.7,1.1,1.5,1.4,2.5c0.3,1,0.5,2.2,0.5,3.5c0,0.8-0.1,1.7-0.2,2.5
		c-0.1,0.8-0.3,1.6-0.6,2.3c-0.3,0.7-0.6,1.4-1,2c-0.4,0.6-0.9,1.1-1.4,1.5s-1.1,0.8-1.8,1S152.7,38.2,151.9,38.2z M152.2,37.2
		c0.6,0,1.1-0.1,1.5-0.3c0.5-0.2,0.9-0.4,1.2-0.8c0.4-0.3,0.7-0.7,0.9-1.2s0.5-1,0.7-1.6c0.2-0.6,0.3-1.2,0.4-1.9
		c0.1-0.7,0.1-1.4,0.1-2.1c0-1.3-0.1-2.5-0.4-3.5c-0.3-1-0.6-1.8-1.1-2.4c-0.4-0.6-1-1.1-1.6-1.4c-0.6-0.3-1.2-0.5-1.9-0.5
		c-0.6,0-1.1,0.1-1.5,0.3s-0.9,0.4-1.2,0.8c-0.4,0.3-0.7,0.7-0.9,1.2s-0.5,1-0.7,1.6c-0.2,0.6-0.3,1.2-0.4,1.9
		c-0.1,0.7-0.1,1.4-0.1,2.1c0,1.3,0.1,2.5,0.4,3.5c0.3,1,0.6,1.8,1.1,2.4c0.4,0.6,1,1.1,1.6,1.4C150.9,37.1,151.5,37.2,152.2,37.2z"
		/>
</g>
<g class="st1">
	<path class="st2" d="M166.3,21c0.8,0,1.5,0,2.2,0c0.7,0,1.3,0,1.8,0c0.5,0,0.9,0,1.3,0c0.3,0,0.5,0,0.6,0c0.2,0,0.4,0.1,0.6,0.2
		c0.1,0.1,0.2,0.3,0.2,0.5c0,0.1,0,0.3,0,0.6c0,0.3,0,0.6-0.1,1c0,0.4-0.1,0.8-0.1,1.2c0,0.4-0.1,0.8-0.1,1.2l-0.8,0
		c0-0.2,0-0.4,0-0.6c0-0.2,0-0.4,0-0.5c0-0.5,0-0.9-0.1-1.2s-0.2-0.5-0.3-0.7c-0.1-0.2-0.3-0.3-0.6-0.4S170.3,22,170,22
		c-0.1,0-0.3,0-0.4,0c-0.1,0-0.2,0-0.4,0h-1.1c-0.3,0-0.5,0-0.8,0c-0.3,0-0.6,0-1,0c-0.1,2.6-0.1,5.3-0.2,7.9
		c-0.1,2.6-0.2,5.2-0.2,7.9l-1.7,0.2l-0.1,0c0.1-1.4,0.1-2.7,0.2-4c0-1.3,0.1-2.5,0.1-3.7c0-1.2,0.1-2.4,0.1-3.6c0-1.2,0-2.4,0-3.6
		c0-0.2,0-0.4-0.1-0.5c0-0.1-0.1-0.2-0.2-0.3c-0.1-0.1-0.2-0.1-0.3-0.2s-0.3,0-0.5,0s-0.4,0-0.6,0c-0.2,0-0.4,0-0.7,0.1l-0.1-0.7
		c0.5-0.1,0.9-0.1,1.3-0.2c0.4-0.1,0.8-0.1,1.2-0.1c0.4,0,0.7-0.1,1-0.1S166,21,166.3,21z"/>
</g>
</svg>
