<?xml version="1.0" encoding="utf-8"?>
<!-- Generator: Adobe Illustrator 22.1.0, SVG Export Plug-In . SVG Version: 6.00 Build 0)  -->
<svg version="1.1" id="Layer_1" xmlns="http://www.w3.org/2000/svg" xmlns:xlink="http://www.w3.org/1999/xlink" x="0px" y="0px"
	 viewBox="0 0 135.3 46.3" style="enable-background:new 0 0 135.3 46.3;" xml:space="preserve">
<style type="text/css">
	.st0{fill:#F8F8F8;}
	.st1{font-family:'Gabriola';}
	.st2{font-size:23px;}
</style>
<title>More</title>
<path class="st0" d="M7.2,0.1h123.5c2.5,0,4.4,0.1,4.4,0.1v6.3v35.3c0,2.4,0.1,4.5,0.1,4.5L6.5,46.2c-3.5,0-6.6,0-6.6,0L0.1,4.1
	c0-3,0-4.1,0-4.1h3c0,0-0.1,0,0,0L7.2,0.1z"/>
<text transform="matrix(1 0 0 1 14.875 29.5102)" class="st1 st2">П</text>
<text transform="matrix(1 0 0 1 26.935 29.5102)" class="st1 st2">О</text>
<text transform="matrix(1 0 0 1 38.225 29.5102)" class="st1 st2">Д</text>
<text transform="matrix(1 0 0 1 50.105 29.5102)" class="st1 st2">Р</text>
<text transform="matrix(1 0 0 1 59.615 29.5102)" class="st1 st2">ОБНЕЕ</text>
</svg>
