<?xml version="1.0" encoding="utf-8"?>
<!-- Generator: Adobe Illustrator 22.1.0, SVG Export Plug-In . SVG Version: 6.00 Build 0)  -->
<svg version="1.1" id="Layer_1" xmlns="http://www.w3.org/2000/svg" xmlns:xlink="http://www.w3.org/1999/xlink" x="0px" y="0px"
	 viewBox="0 0 135.3 46.3" style="enable-background:new 0 0 135.3 46.3;" xml:space="preserve">
<style type="text/css">
	.st0{fill:#F8F8F8;}
	.st1{enable-background:new    ;}
</style>
<title>More</title>
<path class="st0" d="M7.2,0.1h123.5c2.5,0,4.4,0.1,4.4,0.1v6.3v35.3c0,2.4,0.1,4.5,0.1,4.5L6.5,46.2c-3.5,0-6.6,0-6.6,0L0.1,4.1
	c0-3,0-4.1,0-4.1h3c0,0-0.1,0,0,0L7.2,0.1z"/>
<g class="st1">
	<path d="M17,18.3c0-0.2,0-0.3-0.1-0.4c0-0.1-0.1-0.2-0.2-0.2c-0.1-0.1-0.2-0.1-0.2-0.1c-0.1,0-0.2,0-0.3,0c-0.1,0-0.1,0-0.2,0
		c-0.1,0-0.1,0-0.2,0c-0.1,0-0.2,0-0.3,0c-0.1,0-0.2,0-0.4,0L15.1,17c0.7-0.1,1.4-0.2,1.9-0.3s1-0.1,1.5-0.1c1,0,1.9,0,2.6,0
		s1.4,0,1.9,0c0.5,0,1,0,1.3,0c0.3,0,0.6,0,0.7,0c0.2,0,0.3,0,0.4,0.1c0.1,0.1,0.1,0.2,0.1,0.4c0,0.1,0,0.2,0,0.5
		c0,0.2,0,0.5-0.1,0.9c0,0.4-0.1,0.8-0.1,1.3c0,0.5-0.1,1-0.1,1.6c0,0.6,0,1.2-0.1,1.9c0,0.7,0,1.4,0,2.2c0,0.5,0,0.9,0,1.3
		s0.1,0.7,0.1,0.9s0.1,0.4,0.2,0.6c0.1,0.1,0.1,0.2,0.2,0.3c0.1,0.1,0.2,0.1,0.3,0.1s0.2,0,0.4,0c0.1,0,0.2,0,0.2,0
		c0.1,0,0.2,0,0.2,0c0.1,0,0.2,0,0.3-0.1c0.1,0,0.2-0.1,0.3-0.1l0.2,0.5c-0.5,0.2-1,0.4-1.3,0.5c-0.4,0.1-0.8,0.2-1.1,0.2
		c-0.2,0-0.3,0-0.4,0c-0.1,0-0.2-0.1-0.3-0.2s-0.2-0.2-0.3-0.4c-0.1-0.2-0.1-0.4-0.2-0.7c0-0.3-0.1-0.6-0.1-1c0-0.4,0-0.9,0-1.5
		c0-0.6,0-1.3,0-1.9c0-0.6,0-1.2,0-1.7c0-0.5,0-1.1,0.1-1.5c0-0.5,0-0.9,0.1-1.2c0-0.4,0-0.7,0-0.9c0-0.2,0-0.4,0-0.5
		c0-0.1,0-0.2,0-0.3c0-0.1-0.1-0.2-0.1-0.2s-0.1-0.1-0.2-0.2c-0.1,0-0.2-0.1-0.4-0.1c-0.2,0-0.4,0-0.6,0s-0.6,0-1,0
		c-0.4,0-0.8,0-1.4,0s-1.2,0-1.9,0c0,0.3,0,0.8,0,1.3c0,0.5,0,1.1,0,1.7c0,0.6,0,1.3-0.1,2s0,1.5-0.1,2.3c0,0.8,0,1.6-0.1,2.4
		c0,0.8-0.1,1.6-0.1,2.4l-1.3,0.2l-0.1,0c0-1.1,0.1-2.1,0.1-3.1s0.1-1.9,0.1-2.8c0-0.9,0-1.8,0.1-2.7S17,19.2,17,18.3z"/>
</g>
<g class="st1">
	<path d="M32.8,29.8c-0.8,0-1.4-0.1-2.1-0.4c-0.6-0.3-1.2-0.7-1.6-1.2c-0.5-0.5-0.8-1.2-1.1-1.9c-0.3-0.8-0.4-1.7-0.4-2.7
		c0-0.6,0.1-1.3,0.2-1.9s0.3-1.2,0.5-1.7c0.2-0.5,0.5-1,0.8-1.5c0.3-0.5,0.7-0.8,1.1-1.2c0.4-0.3,0.9-0.6,1.4-0.8s1.1-0.3,1.7-0.3
		c0.8,0,1.4,0.1,2.1,0.4c0.6,0.3,1.2,0.7,1.6,1.2c0.5,0.5,0.8,1.2,1.1,1.9c0.3,0.8,0.4,1.7,0.4,2.7c0,0.6-0.1,1.3-0.2,1.9
		c-0.1,0.6-0.3,1.2-0.5,1.7s-0.5,1-0.8,1.5c-0.3,0.5-0.7,0.8-1.1,1.2c-0.4,0.3-0.9,0.6-1.4,0.8C34,29.7,33.4,29.8,32.8,29.8z
		 M33.1,29.1c0.4,0,0.8-0.1,1.2-0.2c0.4-0.1,0.7-0.3,1-0.6s0.5-0.6,0.7-0.9c0.2-0.4,0.4-0.8,0.5-1.2s0.2-0.9,0.3-1.5
		s0.1-1.1,0.1-1.6c0-1-0.1-1.9-0.3-2.7c-0.2-0.8-0.5-1.4-0.8-1.9s-0.7-0.9-1.2-1.1C34,17.2,33.6,17,33,17c-0.4,0-0.8,0.1-1.2,0.2
		s-0.7,0.3-1,0.6c-0.3,0.3-0.5,0.6-0.7,0.9c-0.2,0.4-0.4,0.8-0.5,1.2s-0.2,0.9-0.3,1.5s-0.1,1.1-0.1,1.6c0,1,0.1,1.9,0.3,2.7
		c0.2,0.8,0.5,1.4,0.8,1.9c0.3,0.5,0.7,0.9,1.2,1.1S32.5,29.1,33.1,29.1z"/>
</g>
<g class="st1">
	<path d="M49.5,34.3c0-0.3,0-0.7,0-1c0-0.3,0-0.7,0-1c0-0.3,0-0.6,0-0.9c0-0.3,0-0.6,0-0.8c0-0.2,0-0.4,0-0.6c0-0.1,0-0.2,0-0.3
		c0-0.1,0-0.1,0-0.2c0,0-0.1,0-0.2,0c-0.6,0-1.2,0-1.7,0c-0.5,0-1.1,0-1.6,0h-1.1c-1,0-1.9,0-2.7,0s-1.5,0-2,0c0,0-0.1,0-0.1,0
		c0,0-0.1,0-0.1,0c0,0,0,0,0,0.1c0,0,0,0.1,0,0.1c-0.1,0.8-0.3,1.5-0.4,2.3c-0.1,0.8-0.2,1.5-0.3,2.3l-0.5,0c0-0.2,0-0.5,0-0.7
		s0-0.4,0-0.7v-2.7c0-0.2,0-0.5,0-0.7c0-0.2,0-0.5,0-0.7c0-0.1,0-0.1,0.1-0.1c0.2,0,0.3,0,0.5,0c0.2,0,0.3,0,0.5,0
		c0.1-0.4,0.3-0.8,0.4-1.2c0.2-0.5,0.4-0.9,0.6-1.5c0.2-0.5,0.4-1.1,0.7-1.6c0.2-0.6,0.5-1.1,0.7-1.7c0.3-0.6,0.5-1.1,0.8-1.7
		s0.5-1.1,0.7-1.6c0.2-0.5,0.5-1,0.7-1.4s0.4-0.8,0.6-1.1c0.1-0.1,0.2-0.2,0.3-0.3c0.1,0,0.3-0.1,0.4-0.1c0.1,0,0.2,0,0.3,0
		c0.1,0,0.2,0.1,0.3,0.1c0.2,1.2,0.4,2.3,0.6,3.4c0.2,1.1,0.4,2.1,0.6,3.1c0.2,1,0.4,1.9,0.7,2.8c0.2,0.9,0.5,1.8,0.7,2.7
		c0.4,0,0.8,0,1.1,0s0.5,0,0.6,0c0.1,0,0.1,0,0.1,0.1v0c0,0,0,0,0,0.1c-0.1,0.4-0.1,0.9-0.2,1.3c-0.1,0.5-0.1,0.9-0.2,1.4
		c-0.1,0.5-0.1,0.9-0.2,1.4c-0.1,0.5-0.1,0.9-0.2,1.3L49.5,34.3z M45.7,28.7c0.3,0,0.6,0,0.9,0c0.3,0,0.6,0,1,0
		c-0.2-0.9-0.4-1.8-0.6-2.7s-0.4-1.8-0.6-2.7c-0.2-0.9-0.4-1.8-0.6-2.7c-0.2-0.9-0.4-1.8-0.5-2.8h0c-0.5,1.1-1,2.1-1.4,3
		c-0.4,1-0.8,1.9-1.2,2.8c-0.4,0.9-0.7,1.8-0.9,2.6c-0.3,0.8-0.5,1.7-0.7,2.5c0.5,0,1,0,1.5,0s0.9,0,1.3,0H45.7z"/>
</g>
<g class="st1">
	<path d="M52.2,18.4c0-0.2,0-0.3,0-0.4s-0.1-0.2-0.1-0.3s-0.2-0.1-0.3-0.2c-0.1,0-0.3-0.1-0.4-0.1c-0.2,0-0.6,0-0.9,0.1l-0.1-0.5
		c0.4-0.1,0.7-0.1,1.2-0.2c0.4-0.1,0.8-0.1,1.3-0.2c0.4-0.1,0.9-0.1,1.3-0.1c0.4,0,0.9-0.1,1.3-0.1c0.5,0,1,0,1.5,0.1
		c0.5,0.1,0.9,0.3,1.2,0.5c0.4,0.2,0.6,0.5,0.8,0.9c0.2,0.4,0.3,0.9,0.3,1.5c0,0.7-0.1,1.3-0.3,1.8c-0.2,0.5-0.6,1-1,1.4
		c-0.4,0.4-0.9,0.7-1.5,0.9s-1.2,0.3-1.9,0.3c-0.2,0-0.3,0-0.3-0.1s-0.1-0.2-0.1-0.3v-0.1c0,0,0-0.1,0-0.1c0.6,0,1-0.1,1.4-0.2
		s0.7-0.3,1-0.5c0.3-0.2,0.5-0.4,0.6-0.6c0.2-0.2,0.3-0.5,0.4-0.7c0.1-0.3,0.1-0.5,0.2-0.8c0-0.3,0-0.5,0-0.7c0-0.5-0.1-1-0.2-1.4
		c-0.2-0.4-0.4-0.6-0.6-0.9c-0.3-0.2-0.6-0.4-0.9-0.5c-0.3-0.1-0.7-0.1-1.1-0.1c-0.2,0-0.4,0-0.6,0c-0.2,0-0.4,0-0.6,0.1
		c0,0.3,0,0.7,0,1.2c0,0.5,0,1,0,1.7c0,0.6,0,1.3-0.1,2.1c0,0.7,0,1.5-0.1,2.3c0,0.8,0,1.7-0.1,2.5c0,0.9-0.1,1.7-0.1,2.6L52,29.7
		l-0.1,0c0-1.1,0.1-2.1,0.1-3.1s0.1-1.9,0.1-2.8c0-0.9,0-1.8,0.1-2.7C52.2,20.2,52.2,19.3,52.2,18.4z"/>
</g>
<g class="st1">
	<path d="M65.5,29.8c-0.8,0-1.4-0.1-2.1-0.4c-0.6-0.3-1.2-0.7-1.6-1.2c-0.5-0.5-0.8-1.2-1.1-1.9c-0.3-0.8-0.4-1.7-0.4-2.7
		c0-0.6,0.1-1.3,0.2-1.9s0.3-1.2,0.5-1.7c0.2-0.5,0.5-1,0.8-1.5c0.3-0.5,0.7-0.8,1.1-1.2c0.4-0.3,0.9-0.6,1.4-0.8s1.1-0.3,1.7-0.3
		c0.8,0,1.4,0.1,2.1,0.4c0.6,0.3,1.2,0.7,1.6,1.2c0.5,0.5,0.8,1.2,1.1,1.9c0.3,0.8,0.4,1.7,0.4,2.7c0,0.6-0.1,1.3-0.2,1.9
		c-0.1,0.6-0.3,1.2-0.5,1.7c-0.2,0.5-0.5,1-0.8,1.5s-0.7,0.8-1.1,1.2c-0.4,0.3-0.9,0.6-1.4,0.8C66.7,29.7,66.1,29.8,65.5,29.8z
		 M65.7,29.1c0.4,0,0.8-0.1,1.2-0.2c0.4-0.1,0.7-0.3,1-0.6s0.5-0.6,0.7-0.9c0.2-0.4,0.4-0.8,0.5-1.2c0.1-0.5,0.2-0.9,0.3-1.5
		s0.1-1.1,0.1-1.6c0-1-0.1-1.9-0.3-2.7c-0.2-0.8-0.5-1.4-0.8-1.9s-0.7-0.9-1.2-1.1c-0.5-0.2-0.9-0.4-1.5-0.4c-0.4,0-0.8,0.1-1.2,0.2
		s-0.7,0.3-1,0.6c-0.3,0.3-0.5,0.6-0.7,0.9c-0.2,0.4-0.4,0.8-0.5,1.2s-0.2,0.9-0.3,1.5S62,22.5,62,23.1c0,1,0.1,1.9,0.3,2.7
		c0.2,0.8,0.5,1.4,0.8,1.9c0.3,0.5,0.7,0.9,1.2,1.1S65.2,29.1,65.7,29.1z"/>
	<path d="M75.4,16.7c0.7,0,1.4,0,1.9,0c0.6,0,1.1,0,1.5,0c0.4,0,0.8,0,1,0c0.3,0,0.4,0,0.5,0c0.2,0,0.3,0,0.4,0.1s0.2,0.2,0.2,0.4
		c0,0.1,0,0.2,0,0.4c0,0.2,0,0.4-0.1,0.7s-0.1,0.6-0.1,0.9c0,0.3-0.1,0.6-0.1,0.9l-0.6,0c0-0.1,0-0.2,0-0.2s0-0.1,0-0.2s0-0.1,0-0.2
		c0-0.1,0-0.1,0-0.2c0-0.4,0-0.7-0.1-0.9s-0.1-0.4-0.2-0.5s-0.2-0.2-0.4-0.3c-0.2-0.1-0.4-0.1-0.7-0.1c-0.1,0-0.3,0-0.4,0
		c-0.1,0-0.2,0-0.3,0h-1.2c-0.1,0-0.2,0-0.2,0s-0.1,0-0.2,0l-0.4,0c-0.1,0-0.1,0-0.2,0c-0.1,0-0.2,0-0.3,0l-0.1,5.1
		c0.3,0,0.5-0.1,0.8-0.1c0.3,0,0.6,0,0.8,0c0.4,0,0.8,0,1.1,0.1c0.4,0,0.7,0.1,1.1,0.2c0.3,0.1,0.6,0.2,0.9,0.4
		c0.3,0.2,0.5,0.4,0.7,0.6s0.4,0.5,0.5,0.9c0.1,0.3,0.2,0.7,0.2,1.2c0,0.4-0.1,0.8-0.2,1.2s-0.3,0.7-0.5,1s-0.5,0.6-0.7,0.8
		s-0.6,0.4-0.9,0.6c-0.3,0.2-0.7,0.3-1.1,0.3c-0.4,0.1-0.8,0.1-1.2,0.1c-0.3,0-0.6,0-0.9-0.1c-0.3,0-0.6-0.1-0.9-0.2l-1.2,0.1
		l-0.1,0c0-1.1,0.1-2.1,0.1-3.1c0-1,0.1-1.9,0.1-2.8c0-0.9,0-1.8,0.1-2.7c0-0.9,0-1.8,0-2.7c0-0.2,0-0.3-0.1-0.4
		c0-0.1-0.1-0.2-0.2-0.3c-0.1-0.1-0.2-0.1-0.3-0.1c-0.1,0-0.2,0-0.4,0c-0.1,0-0.3,0-0.4,0c-0.1,0-0.3,0-0.5,0.1L72,17
		c0.4-0.1,0.7-0.1,1-0.1s0.6-0.1,0.9-0.1c0.3,0,0.5-0.1,0.8-0.1C75,16.7,75.2,16.7,75.4,16.7z M75.1,28.7c0.6,0.2,1.2,0.3,1.8,0.3
		c0.5,0,0.9-0.1,1.3-0.2s0.7-0.4,1-0.7c0.3-0.3,0.5-0.6,0.6-1s0.2-0.8,0.2-1.2c0-0.5-0.1-1-0.3-1.3c-0.2-0.4-0.4-0.7-0.7-0.9
		s-0.7-0.4-1.1-0.5c-0.4-0.1-0.9-0.1-1.5-0.1c-0.2,0-0.4,0-0.5,0c-0.2,0-0.4,0-0.6,0L75.1,28.7z"/>
	<path d="M85.6,18.1c0,0.2,0,0.4,0,0.6c0,0.2,0,0.5,0,0.9c0,0.4,0,0.8,0,1.2c0,0.5,0,1,0,1.6c0.5,0,1.1,0,1.6,0c0.5,0,1,0,1.5,0
		c0.5,0,1,0,1.5,0c0.5,0,1,0,1.5,0c0-0.4,0-0.8,0-1.1c0-0.4,0-0.8,0-1.2s0-0.9,0.1-1.4c0-0.5,0.1-1,0.1-1.6c0-0.1,0-0.2,0.1-0.2
		c0-0.1,0.1-0.1,0.2-0.1c0.1,0,0.2-0.1,0.2-0.1c0.1,0,0.2,0,0.3,0c0.1,0,0.2,0,0.4,0c0.1,0,0.2,0.1,0.4,0.1
		c-0.1,0.6-0.1,1.2-0.1,1.8S93,19.6,93,20.1c0,0.5-0.1,1.1-0.1,1.6s0,1-0.1,1.6c0,0.5,0,1.1,0,1.6c0,0.6,0,1.1,0,1.7
		c0,0.4,0,0.7,0.1,1c0,0.3,0.1,0.5,0.2,0.7s0.2,0.3,0.3,0.4c0.1,0.1,0.3,0.1,0.5,0.1c0.2,0,0.3,0,0.5,0c0.2,0,0.4-0.1,0.6-0.2
		l0.2,0.5c-0.3,0.1-0.5,0.2-0.8,0.3s-0.4,0.2-0.6,0.2c-0.2,0.1-0.4,0.1-0.6,0.1c-0.2,0-0.3,0-0.5,0c-0.2,0-0.4,0-0.6-0.1
		c-0.2-0.1-0.3-0.2-0.4-0.4c-0.1-0.2-0.2-0.4-0.2-0.7c-0.1-0.3-0.1-0.7-0.1-1.1v-1.3c0-0.3,0-0.6,0-0.8s0-0.5,0-0.8
		c0-0.3,0-0.5,0-0.7c0-0.2,0-0.5,0-0.7c-0.5,0-1,0-1.5,0c-0.5,0-1,0-1.5,0c-0.5,0-1,0-1.5,0c-0.5,0-1,0-1.6,0.1l-0.2,6.3l-1.3,0.2
		l-0.1,0c0-1.1,0.1-2.1,0.1-3.1c0-1,0.1-1.9,0.1-2.8c0-0.9,0-1.8,0.1-2.7c0-0.9,0-1.8,0-2.7c0-0.2,0-0.3,0-0.5
		c0-0.1-0.1-0.2-0.1-0.3c-0.1-0.1-0.2-0.1-0.3-0.2c-0.1,0-0.3-0.1-0.5-0.1c-0.2,0-0.6,0-0.9,0.1L82.2,17c0.5-0.1,1-0.2,1.4-0.3
		c0.4-0.1,0.7-0.1,0.9-0.1c0.3,0,0.4,0,0.6,0.1s0.2,0.2,0.3,0.3c0.1,0.1,0.1,0.3,0.1,0.5C85.6,17.7,85.6,17.9,85.6,18.1z"/>
	<path d="M96.9,18.4c0-0.2,0-0.3,0-0.4s-0.1-0.2-0.1-0.3s-0.2-0.1-0.3-0.2c-0.1,0-0.3,0-0.4,0c-0.1,0-0.3,0-0.4,0
		c-0.2,0-0.3,0-0.5,0.1L95,17c0.4-0.1,0.7-0.1,1-0.1s0.6-0.1,0.9-0.1c0.3,0,0.5-0.1,0.8-0.1c0.2,0,0.5,0,0.7,0c0.6,0,1.2,0,1.7,0
		c0.5,0,1,0,1.4,0c0.4,0,0.7,0,1,0c0.3,0,0.4,0,0.5,0c0.2,0,0.3,0,0.4,0.1c0.1,0.1,0.1,0.2,0.1,0.4c0,0.1,0,0.2,0,0.4
		c0,0.2,0,0.4,0,0.7s0,0.5-0.1,0.8c0,0.3-0.1,0.5-0.1,0.8l-0.5,0c0-0.1,0-0.3,0-0.4c0-0.1,0-0.2,0-0.3c0-0.3,0-0.6-0.1-0.8
		c0-0.2-0.1-0.4-0.2-0.5c-0.1-0.1-0.2-0.2-0.4-0.2c-0.2,0-0.4-0.1-0.7-0.1c-0.4,0-0.7,0-1,0c-0.3,0-0.5,0-0.8,0h-0.3
		c-0.1,0-0.3,0-0.4,0c-0.1,0-0.3,0-0.5,0c0,0.3,0,0.7,0,1c0,0.4,0,0.8,0,1.2c0,0.4,0,0.9,0,1.4c0,0.5,0,1,0,1.5c0.5,0,0.9,0,1.3,0
		c0.4,0,0.7,0,1,0c0.4,0,0.7,0,1,0c0.3,0,0.6-0.1,0.8-0.1c0.1,0.2,0.1,0.3,0.1,0.4c0,0.1,0,0.2-0.1,0.3s-0.2,0.1-0.3,0.2
		c-0.1,0-0.3,0.1-0.4,0.1s-0.4,0-0.6,0c-0.4,0-0.8,0-1.3-0.1c-0.5,0-1-0.1-1.6-0.2c0,0.2,0,0.5,0,0.8c0,0.3,0,0.6,0,1
		c0,0.3,0,0.7-0.1,1.1s0,0.7-0.1,1c0,0.3,0,0.6-0.1,0.9s0,0.5-0.1,0.7c0.4-0.1,0.7-0.1,1.1-0.1c0.3,0,0.7,0,0.9,0c0.4,0,0.8,0,1.1,0
		s0.7,0,1,0c0.2,0,0.4,0,0.6-0.1c0.2-0.1,0.3-0.2,0.4-0.3c0.1-0.2,0.2-0.4,0.3-0.6s0.2-0.6,0.2-1l0.5,0c0,0.6-0.1,1.1-0.1,1.6
		c-0.1,0.4-0.2,0.7-0.3,1c-0.1,0.2-0.3,0.4-0.5,0.5s-0.4,0.1-0.7,0.1c-0.2,0-0.4,0-0.7-0.1c-0.2,0-0.5-0.1-0.8-0.1s-0.6-0.1-0.9-0.1
		c-0.3,0-0.7-0.1-1.1-0.1c-0.3,0-0.7,0-1.1,0.1s-0.8,0.1-1.3,0.2l-0.1,0c0.1-0.4,0.1-0.8,0.1-1.4c0-0.5,0.1-1.1,0.1-1.7
		c0-0.6,0.1-1.3,0.1-2c0-0.7,0-1.4,0.1-2.1c0-0.7,0-1.4,0-2.1S96.9,19,96.9,18.4z"/>
	<path d="M106.5,18.4c0-0.2,0-0.3,0-0.4s-0.1-0.2-0.1-0.3s-0.2-0.1-0.3-0.2c-0.1,0-0.3,0-0.4,0c-0.1,0-0.3,0-0.4,0
		c-0.1,0-0.3,0-0.5,0.1l-0.1-0.5c0.4-0.1,0.7-0.1,1-0.1s0.6-0.1,0.9-0.1c0.3,0,0.5-0.1,0.8-0.1c0.2,0,0.5,0,0.7,0c0.6,0,1.2,0,1.7,0
		c0.5,0,1,0,1.4,0c0.4,0,0.7,0,1,0c0.3,0,0.4,0,0.5,0c0.2,0,0.3,0,0.4,0.1c0.1,0.1,0.1,0.2,0.1,0.4c0,0.1,0,0.2,0,0.4
		c0,0.2,0,0.4-0.1,0.7s0,0.5-0.1,0.8c0,0.3-0.1,0.5-0.1,0.8l-0.5,0c0-0.1,0-0.3,0-0.4c0-0.1,0-0.2,0-0.3c0-0.3,0-0.6-0.1-0.8
		c0-0.2-0.1-0.4-0.2-0.5c-0.1-0.1-0.2-0.2-0.4-0.2c-0.2,0-0.4-0.1-0.7-0.1c-0.4,0-0.7,0-1,0c-0.3,0-0.5,0-0.8,0H109
		c-0.1,0-0.3,0-0.4,0c-0.1,0-0.3,0-0.5,0c0,0.3,0,0.7,0,1c0,0.4,0,0.8,0,1.2c0,0.4,0,0.9,0,1.4c0,0.5,0,1,0,1.5c0.5,0,0.9,0,1.3,0
		c0.4,0,0.7,0,1,0c0.4,0,0.7,0,1,0s0.6-0.1,0.8-0.1c0.1,0.2,0.1,0.3,0.1,0.4c0,0.1,0,0.2-0.1,0.3s-0.2,0.1-0.3,0.2
		c-0.1,0-0.3,0.1-0.4,0.1c-0.2,0-0.4,0-0.6,0c-0.4,0-0.8,0-1.3-0.1s-1-0.1-1.6-0.2c0,0.2,0,0.5,0,0.8c0,0.3,0,0.6,0,1
		c0,0.3,0,0.7-0.1,1.1s0,0.7-0.1,1c0,0.3,0,0.6-0.1,0.9s0,0.5-0.1,0.7c0.4-0.1,0.7-0.1,1.1-0.1c0.3,0,0.7,0,0.9,0c0.4,0,0.8,0,1.1,0
		c0.3,0,0.7,0,1,0c0.2,0,0.4,0,0.6-0.1c0.2-0.1,0.3-0.2,0.4-0.3c0.1-0.2,0.2-0.4,0.3-0.6c0.1-0.3,0.2-0.6,0.2-1l0.5,0
		c0,0.6-0.1,1.1-0.1,1.6c-0.1,0.4-0.2,0.7-0.3,1c-0.1,0.2-0.3,0.4-0.5,0.5s-0.4,0.1-0.7,0.1c-0.2,0-0.4,0-0.7-0.1s-0.5-0.1-0.8-0.1
		c-0.3,0-0.6-0.1-0.9-0.1c-0.3,0-0.7-0.1-1.1-0.1c-0.3,0-0.7,0-1.1,0.1c-0.4,0-0.8,0.1-1.3,0.2l-0.1,0c0.1-0.4,0.1-0.8,0.1-1.4
		c0-0.5,0.1-1.1,0.1-1.7c0-0.6,0.1-1.3,0.1-2c0-0.7,0-1.4,0.1-2.1s0-1.4,0-2.1C106.5,19.6,106.5,19,106.5,18.4z"/>
</g>
</svg>
