<?xml version="1.0" encoding="utf-8"?>
<!-- Generator: Adobe Illustrator 22.1.0, SVG Export Plug-In . SVG Version: 6.00 Build 0)  -->
<svg version="1.1" id="Layer_1" xmlns="http://www.w3.org/2000/svg" xmlns:xlink="http://www.w3.org/1999/xlink" x="0px" y="0px"
	 viewBox="0 0 137.5 47.6" style="enable-background:new 0 0 137.5 47.6;" xml:space="preserve">
<style type="text/css">
	.st0{fill:#575454;}
	.st1{enable-background:new    ;}
	.st2{fill:#FFFFFF;}
</style>
<title>Order_flex</title>
<path class="st0" d="M6.8-1l125.3-0.6c2,0.1,4,0.2,6,0.5l0.3,43.7v5L6,47.5h-6.6l0.3-44.3v-4.3h3L6.8-1z"/>
<g>
	<g class="st1">
		<path class="st2" d="M33.4,24.2c-0.2,0.1-0.4,0.2-0.6,0.3c-0.2,0.1-0.4,0.1-0.7,0.1c-0.2,0-0.3,0-0.5-0.1c-0.1,0-0.2-0.1-0.3-0.2
			c-0.1-0.1-0.1-0.2-0.2-0.2c0-0.1-0.1-0.2-0.1-0.3c0-0.1,0-0.3,0.1-0.4c0.1-0.1,0.1-0.2,0.3-0.3c0.1-0.1,0.2-0.1,0.4-0.2
			c0.1,0,0.3-0.1,0.4-0.1c0.2,0,0.3,0,0.5,0.1s0.3,0.1,0.5,0.2c0.3-0.1,0.6-0.3,0.8-0.5s0.4-0.4,0.6-0.6s0.3-0.5,0.4-0.7
			c0.1-0.3,0.1-0.6,0.1-0.9c0-0.4-0.1-0.7-0.2-1c-0.1-0.3-0.3-0.5-0.5-0.7c-0.2-0.2-0.4-0.3-0.7-0.4c-0.3-0.1-0.6-0.2-0.9-0.2
			c-0.3,0-0.6,0-0.9,0.1s-0.6,0.1-0.8,0.2c-0.3,0.1-0.6,0.2-0.8,0.4s-0.6,0.4-0.9,0.6c-0.1-0.1-0.2-0.2-0.2-0.2
			c-0.1-0.1-0.1-0.1-0.1-0.2c0,0,0-0.1,0-0.1c0,0,0.1-0.1,0.1-0.1c0.1-0.1,0.2-0.2,0.4-0.3c0.2-0.1,0.3-0.2,0.5-0.4
			c0.2-0.1,0.4-0.2,0.7-0.4s0.5-0.2,0.8-0.3s0.6-0.2,0.9-0.2c0.3-0.1,0.6-0.1,1-0.1c0.4,0,0.8,0.1,1.2,0.2c0.4,0.1,0.7,0.3,1,0.6
			s0.5,0.5,0.7,0.9c0.2,0.4,0.2,0.8,0.2,1.2c0,0.5-0.1,0.9-0.2,1.3c-0.2,0.4-0.4,0.7-0.7,1s-0.6,0.5-0.9,0.8s-0.7,0.4-1.1,0.6
			c0.6,0.1,1.1,0.2,1.6,0.4s0.8,0.4,1.1,0.7c0.3,0.3,0.5,0.6,0.6,1s0.2,0.7,0.2,1.1c0,0.3,0,0.6-0.1,1s-0.2,0.6-0.4,0.9
			c-0.2,0.3-0.4,0.5-0.7,0.8c-0.3,0.2-0.6,0.4-1,0.6c-0.4,0.2-0.8,0.3-1.3,0.4c-0.5,0.1-1,0.1-1.5,0.1c-0.4,0-0.8,0-1.2-0.1
			c-0.4-0.1-0.7-0.1-1-0.2c-0.3-0.1-0.5-0.2-0.7-0.3s-0.3-0.2-0.3-0.3c0-0.2,0-0.4,0-0.6c0-0.2,0-0.5,0-0.7s0-0.5,0-0.7s0-0.5,0-0.7
			l0.6,0c0,0.1,0,0.2,0,0.2s0,0.2,0,0.2c0,0.5,0.1,0.8,0.2,1.2s0.3,0.6,0.5,0.8s0.5,0.3,0.8,0.4C31.6,30,32,30,32.3,30
			c0.5,0,0.9-0.1,1.3-0.2c0.4-0.1,0.8-0.3,1.1-0.6s0.6-0.6,0.7-0.9c0.2-0.4,0.3-0.8,0.3-1.3c0-0.4-0.1-0.7-0.2-1s-0.3-0.6-0.4-0.8
			c-0.2-0.2-0.4-0.4-0.7-0.6C34.1,24.4,33.8,24.3,33.4,24.2z"/>
	</g>
	<g class="st1">
		<path class="st2" d="M40.1,27.4c-0.1,0.4-0.3,0.7-0.4,1c-0.1,0.3-0.2,0.5-0.3,0.7c-0.1,0.2-0.1,0.4-0.2,0.5
			c-0.1,0.2-0.1,0.3-0.2,0.4c-0.1,0.1-0.1,0.3-0.2,0.3c-0.1,0.1-0.2,0.1-0.2,0.2c-0.1,0-0.2,0.1-0.3,0.1s-0.2,0-0.3,0
			c-0.1,0-0.1,0-0.2,0c-0.1,0-0.2,0-0.3,0l-0.1-0.1c0.4-1,0.9-1.9,1.3-2.8s0.8-1.7,1.2-2.5c-0.1-0.1-0.1-0.2-0.1-0.3
			c0-0.1,0.1-0.2,0.4-0.2c0.7-1.5,1.3-2.8,1.8-4s1-2.1,1.4-2.9c0-0.1,0.1-0.1,0.1-0.2s0.1-0.1,0.2-0.1c0.1,0,0.1,0,0.2-0.1
			c0.1,0,0.2,0,0.2,0c0.1,0,0.2,0,0.3,0c0.1,0,0.2,0.1,0.3,0.1c0.2,1.3,0.5,2.5,0.6,3.5c0.2,1,0.4,2,0.5,2.8s0.3,1.5,0.5,2.1
			c0.1,0.6,0.3,1.1,0.4,1.6s0.3,0.8,0.4,1.1c0.1,0.3,0.3,0.5,0.4,0.7s0.3,0.3,0.5,0.3s0.3,0.1,0.5,0.1c0.1,0,0.3,0,0.4,0
			c0.1,0,0.3-0.1,0.4-0.1l0.2,0.5c-0.4,0.2-0.8,0.4-1.2,0.5s-0.7,0.2-1,0.2c-0.2,0-0.3,0-0.5-0.1c-0.2-0.1-0.3-0.2-0.4-0.3
			c-0.1-0.2-0.3-0.4-0.4-0.6c-0.1-0.3-0.3-0.6-0.4-1c-0.1-0.4-0.3-0.9-0.4-1.4c-0.1-0.5-0.3-1.2-0.4-1.9c-0.7,0-1.4,0-2.1,0
			s-1.4,0.1-2.1,0.1c-0.1,0.4-0.3,0.7-0.4,1.1C40.3,26.8,40.2,27.1,40.1,27.4z M44.8,24.6c-0.1-0.4-0.2-0.8-0.3-1.2
			s-0.2-0.9-0.3-1.4c-0.1-0.5-0.2-1-0.3-1.6c-0.1-0.5-0.2-1.1-0.3-1.7h0c-0.5,1.1-1,2.2-1.4,3.2c-0.4,1-0.8,1.9-1.1,2.8
			c0.6,0,1.3,0,1.9,0C43.6,24.6,44.2,24.6,44.8,24.6z"/>
	</g>
	<g class="st1">
		<path class="st2" d="M51.2,19.3c0-0.2,0-0.3,0-0.5c0-0.1-0.1-0.2-0.1-0.3c-0.1-0.1-0.2-0.1-0.3-0.2c-0.1,0-0.3-0.1-0.5-0.1
			c-0.2,0-0.6,0-0.9,0.1l-0.1-0.5c0.5-0.1,1-0.2,1.4-0.3c0.4-0.1,0.7-0.1,0.9-0.1c0.3,0,0.4,0,0.6,0.1c0.1,0.1,0.2,0.2,0.3,0.3
			c0.1,0.1,0.1,0.3,0.1,0.5c0,0.2,0,0.4,0,0.6c0,0.1,0,0.2,0,0.4c0,0.2,0,0.5,0,0.9c0,0.3,0,0.7,0,1.2c0,0.5,0,1,0,1.5
			s0,1.1-0.1,1.7c0,0.6,0,1.2-0.1,1.9c0,0.6,0,1.3-0.1,1.9s0,1.3-0.1,1.9L51,30.6l-0.1,0c0-1.1,0.1-2.1,0.1-3.1s0.1-1.9,0.1-2.8
			c0-0.9,0-1.8,0.1-2.7C51.2,21.1,51.2,20.2,51.2,19.3z M52.7,24c0.7-0.6,1.3-1.1,1.9-1.6s1-0.9,1.4-1.3c0.4-0.4,0.7-0.7,1-1
			c0.3-0.3,0.5-0.6,0.6-0.8c0.2-0.3,0.3-0.5,0.3-0.8c0.1-0.2,0.1-0.5,0.1-0.8c0-0.1,0-0.3-0.1-0.4l0-0.1c0.2,0,0.3-0.1,0.5-0.1
			c0.1,0,0.3,0,0.4,0.1s0.2,0.1,0.3,0.2c0.1,0.1,0.2,0.2,0.2,0.3c0,0.1,0.1,0.2,0.1,0.4c0,0.1,0,0.3-0.1,0.5
			c-0.1,0.2-0.2,0.4-0.3,0.6s-0.4,0.5-0.6,0.7c-0.3,0.3-0.6,0.6-1,1s-0.8,0.8-1.4,1.2c-0.5,0.5-1.1,1-1.8,1.6
			c0.6,0.9,1.2,1.7,1.6,2.3s0.9,1.2,1.2,1.6c0.4,0.4,0.7,0.8,0.9,1.1s0.5,0.5,0.7,0.6c0.2,0.1,0.4,0.2,0.5,0.3
			c0.2,0,0.3,0.1,0.5,0.1c0.1,0,0.3,0,0.5,0c0.2,0,0.3-0.1,0.5-0.1l0.2,0.5c-0.2,0.1-0.4,0.2-0.6,0.3s-0.4,0.2-0.6,0.2
			s-0.4,0.1-0.6,0.1c-0.2,0-0.3,0.1-0.4,0.1c-0.2,0-0.3,0-0.5-0.1c-0.2-0.1-0.4-0.2-0.6-0.4c-0.2-0.2-0.4-0.4-0.7-0.7
			c-0.3-0.3-0.6-0.7-0.9-1.1c-0.3-0.4-0.7-1-1.2-1.5s-0.9-1.3-1.5-2c-0.1-0.1-0.2-0.2-0.2-0.3S52.8,24.2,52.7,24L52.7,24z"/>
		<path class="st2" d="M62.1,27.4c-0.1,0.4-0.3,0.7-0.4,1c-0.1,0.3-0.2,0.5-0.3,0.7c-0.1,0.2-0.1,0.4-0.2,0.5
			c-0.1,0.2-0.1,0.3-0.2,0.4c-0.1,0.1-0.1,0.3-0.2,0.3c-0.1,0.1-0.2,0.1-0.2,0.2c-0.1,0-0.2,0.1-0.3,0.1s-0.2,0-0.3,0
			c-0.1,0-0.1,0-0.2,0c-0.1,0-0.2,0-0.3,0l-0.1-0.1c0.4-1,0.9-1.9,1.3-2.8s0.8-1.7,1.2-2.5c-0.1-0.1-0.1-0.2-0.1-0.3
			c0-0.1,0.1-0.2,0.4-0.2c0.7-1.5,1.3-2.8,1.8-4s1-2.1,1.4-2.9c0-0.1,0.1-0.1,0.1-0.2s0.1-0.1,0.2-0.1c0.1,0,0.1,0,0.2-0.1
			c0.1,0,0.2,0,0.2,0c0.1,0,0.2,0,0.3,0c0.1,0,0.2,0.1,0.3,0.1c0.2,1.3,0.5,2.5,0.6,3.5c0.2,1,0.4,2,0.5,2.8s0.3,1.5,0.5,2.1
			c0.1,0.6,0.3,1.1,0.4,1.6s0.3,0.8,0.4,1.1c0.1,0.3,0.3,0.5,0.4,0.7c0.1,0.2,0.3,0.3,0.5,0.3c0.2,0.1,0.3,0.1,0.5,0.1
			c0.1,0,0.3,0,0.4,0c0.1,0,0.3-0.1,0.4-0.1l0.2,0.5c-0.4,0.2-0.8,0.4-1.2,0.5c-0.4,0.1-0.7,0.2-1,0.2c-0.2,0-0.3,0-0.5-0.1
			c-0.2-0.1-0.3-0.2-0.4-0.3c-0.1-0.2-0.3-0.4-0.4-0.6c-0.1-0.3-0.3-0.6-0.4-1c-0.1-0.4-0.3-0.9-0.4-1.4c-0.1-0.5-0.3-1.2-0.4-1.9
			c-0.7,0-1.4,0-2.1,0s-1.4,0.1-2.1,0.1c-0.1,0.4-0.3,0.7-0.4,1.1C62.3,26.8,62.2,27.1,62.1,27.4z M66.8,24.6
			c-0.1-0.4-0.2-0.8-0.3-1.2s-0.2-0.9-0.3-1.4c-0.1-0.5-0.2-1-0.3-1.6c-0.1-0.5-0.2-1.1-0.3-1.7h0c-0.5,1.1-1,2.2-1.4,3.2
			c-0.4,1-0.8,1.9-1.1,2.8c0.6,0,1.3,0,1.9,0C65.6,24.6,66.2,24.6,66.8,24.6z"/>
		<path class="st2" d="M76.4,24.2c-0.2,0.1-0.4,0.2-0.6,0.3c-0.2,0.1-0.4,0.1-0.7,0.1c-0.2,0-0.3,0-0.5-0.1s-0.2-0.1-0.3-0.2
			c-0.1-0.1-0.2-0.2-0.2-0.2s-0.1-0.2-0.1-0.3c0-0.1,0-0.3,0.1-0.4c0.1-0.1,0.1-0.2,0.3-0.3c0.1-0.1,0.2-0.1,0.4-0.2
			s0.3-0.1,0.4-0.1c0.2,0,0.3,0,0.5,0.1c0.2,0,0.3,0.1,0.5,0.2c0.3-0.1,0.6-0.3,0.8-0.5c0.2-0.2,0.4-0.4,0.6-0.6
			c0.2-0.2,0.3-0.5,0.4-0.7c0.1-0.3,0.1-0.6,0.1-0.9c0-0.4-0.1-0.7-0.2-1c-0.1-0.3-0.3-0.5-0.5-0.7c-0.2-0.2-0.4-0.3-0.7-0.4
			c-0.3-0.1-0.6-0.2-0.9-0.2c-0.3,0-0.6,0-0.9,0.1c-0.3,0-0.6,0.1-0.8,0.2c-0.3,0.1-0.6,0.2-0.8,0.4c-0.3,0.2-0.6,0.4-0.9,0.6
			c-0.1-0.1-0.2-0.2-0.2-0.2c0-0.1-0.1-0.1-0.1-0.2c0,0,0-0.1,0-0.1c0,0,0.1-0.1,0.1-0.1c0.1-0.1,0.2-0.2,0.4-0.3
			c0.2-0.1,0.3-0.2,0.5-0.4c0.2-0.1,0.4-0.2,0.7-0.4s0.5-0.2,0.8-0.3c0.3-0.1,0.6-0.2,0.9-0.2c0.3-0.1,0.6-0.1,1-0.1
			c0.4,0,0.8,0.1,1.2,0.2c0.4,0.1,0.7,0.3,1,0.6c0.3,0.2,0.5,0.5,0.7,0.9c0.2,0.4,0.2,0.8,0.2,1.2c0,0.5-0.1,0.9-0.2,1.3
			c-0.2,0.4-0.4,0.7-0.7,1s-0.6,0.5-0.9,0.8c-0.4,0.2-0.7,0.4-1.1,0.6c0.6,0.1,1.1,0.2,1.6,0.4c0.4,0.2,0.8,0.4,1.1,0.7
			c0.3,0.3,0.5,0.6,0.6,1s0.2,0.7,0.2,1.1c0,0.3,0,0.6-0.1,1c-0.1,0.3-0.2,0.6-0.4,0.9c-0.2,0.3-0.4,0.5-0.7,0.8
			c-0.3,0.2-0.6,0.4-1,0.6c-0.4,0.2-0.8,0.3-1.3,0.4c-0.5,0.1-1,0.1-1.5,0.1c-0.4,0-0.8,0-1.2-0.1c-0.4-0.1-0.7-0.1-1-0.2
			c-0.3-0.1-0.5-0.2-0.7-0.3c-0.2-0.1-0.3-0.2-0.3-0.3c0-0.2,0-0.4,0-0.6c0-0.2,0-0.5,0-0.7c0-0.2,0-0.5,0-0.7c0-0.2,0-0.5,0-0.7
			l0.6,0c0,0.1,0,0.2,0,0.2s0,0.2,0,0.2c0,0.5,0.1,0.8,0.2,1.2c0.1,0.3,0.3,0.6,0.5,0.8s0.5,0.3,0.8,0.4s0.7,0.1,1.1,0.1
			c0.5,0,0.9-0.1,1.3-0.2c0.4-0.1,0.8-0.3,1.1-0.6s0.6-0.6,0.7-0.9c0.2-0.4,0.3-0.8,0.3-1.3c0-0.4-0.1-0.7-0.2-1
			c-0.1-0.3-0.3-0.6-0.4-0.8c-0.2-0.2-0.4-0.4-0.7-0.6C77.1,24.4,76.8,24.3,76.4,24.2z"/>
	</g>
	<g class="st1">
		<path class="st2" d="M83,27.4c-0.1,0.4-0.3,0.7-0.4,1c-0.1,0.3-0.2,0.5-0.3,0.7c-0.1,0.2-0.1,0.4-0.2,0.5
			c-0.1,0.2-0.1,0.3-0.2,0.4c-0.1,0.1-0.1,0.3-0.2,0.3c-0.1,0.1-0.2,0.1-0.2,0.2c-0.1,0-0.2,0.1-0.3,0.1c-0.1,0-0.2,0-0.3,0
			c-0.1,0-0.1,0-0.2,0s-0.2,0-0.3,0l-0.1-0.1c0.4-1,0.9-1.9,1.3-2.8s0.8-1.7,1.2-2.5c-0.1-0.1-0.1-0.2-0.1-0.3
			c0-0.1,0.1-0.2,0.4-0.2c0.7-1.5,1.3-2.8,1.8-4s1-2.1,1.4-2.9c0-0.1,0.1-0.1,0.1-0.2c0.1,0,0.1-0.1,0.2-0.1c0.1,0,0.1,0,0.2-0.1
			c0.1,0,0.2,0,0.2,0c0.1,0,0.2,0,0.3,0c0.1,0,0.2,0.1,0.3,0.1c0.2,1.3,0.5,2.5,0.6,3.5c0.2,1,0.4,2,0.5,2.8
			c0.2,0.8,0.3,1.5,0.5,2.1s0.3,1.1,0.4,1.6s0.3,0.8,0.4,1.1c0.1,0.3,0.3,0.5,0.4,0.7c0.1,0.2,0.3,0.3,0.5,0.3
			c0.2,0.1,0.3,0.1,0.5,0.1c0.1,0,0.3,0,0.4,0c0.1,0,0.3-0.1,0.4-0.1l0.2,0.5c-0.4,0.2-0.8,0.4-1.2,0.5c-0.4,0.1-0.7,0.2-1,0.2
			c-0.2,0-0.3,0-0.5-0.1s-0.3-0.2-0.4-0.3c-0.1-0.2-0.3-0.4-0.4-0.6c-0.1-0.3-0.3-0.6-0.4-1c-0.1-0.4-0.3-0.9-0.4-1.4
			c-0.1-0.5-0.3-1.2-0.4-1.9c-0.7,0-1.4,0-2.1,0s-1.4,0.1-2.1,0.1c-0.1,0.4-0.3,0.7-0.4,1.1C83.2,26.8,83.1,27.1,83,27.4z
			 M87.7,24.6c-0.1-0.4-0.2-0.8-0.3-1.2s-0.2-0.9-0.3-1.4c-0.1-0.5-0.2-1-0.3-1.6c-0.1-0.5-0.2-1.1-0.3-1.7h0
			c-0.5,1.1-1,2.2-1.4,3.2c-0.4,1-0.8,1.9-1.1,2.8c0.6,0,1.3,0,1.9,0C86.5,24.6,87.1,24.6,87.7,24.6z"/>
	</g>
	<g class="st1">
		<path class="st2" d="M91.6,20.8l-0.6,0c0-0.5,0-0.9,0-1.2c0-0.4,0-0.7,0.1-0.9c0-0.3,0.1-0.5,0.2-0.6c0.1-0.2,0.3-0.3,0.5-0.4
			c0.2-0.1,0.5-0.1,0.8-0.1c0.2,0,0.5,0,0.7,0s0.6,0,0.9,0c0.3,0,0.6,0,0.9,0c0.3,0,0.6,0,0.9,0c0.5,0,1,0,1.3,0s0.7,0,1,0
			c0.3,0,0.6,0,0.8,0c0.2,0,0.4,0,0.6,0c0.2,0,0.4,0,0.5-0.1s0.3,0,0.5-0.1c0.1,0.2,0.1,0.3,0.1,0.4c0,0.2-0.1,0.4-0.3,0.6
			c-0.2,0.1-0.5,0.2-0.9,0.2c-0.4,0-0.8,0-1.4-0.1s-1.1-0.1-1.8-0.1c0,0.6,0,1.1,0,1.8c0,0.6,0,1.3-0.1,2s0,1.4-0.1,2.1
			c0,0.7,0,1.4-0.1,2.1s0,1.4-0.1,2.1s0,1.4-0.1,2L95,30.6l-0.1,0c0-0.7,0.1-1.4,0.1-2.1c0-0.7,0.1-1.3,0.1-1.9s0-1.3,0.1-1.9
			s0-1.3,0-1.9c0-0.7,0-1.4,0-2.1c0-0.7,0-1.5,0-2.3c-0.2,0-0.4,0-0.7,0c-0.2,0-0.4,0-0.7,0s-0.4,0-0.6,0c-0.2,0-0.4,0-0.5,0.1
			s-0.3,0.1-0.4,0.2c-0.1,0.1-0.2,0.2-0.3,0.4c-0.1,0.2-0.2,0.4-0.2,0.7s-0.1,0.6-0.1,1V20.8z"/>
	</g>
	<g class="st1">
		<path class="st2" d="M102.5,19.3c0-0.2,0-0.3,0-0.5c0-0.1-0.1-0.2-0.1-0.3c-0.1-0.1-0.1-0.1-0.3-0.2c-0.1,0-0.3-0.1-0.4-0.1
			c-0.1,0-0.3,0-0.5,0c-0.2,0-0.4,0-0.6,0.1l-0.1-0.5c0.6-0.1,1-0.2,1.4-0.3c0.4-0.1,0.7-0.1,1-0.1c0.2,0,0.4,0,0.6,0.1
			s0.2,0.2,0.3,0.3c0.1,0.1,0.1,0.3,0.1,0.4c0,0.2,0,0.4,0,0.6c0,0.1,0,0.2,0,0.5c0,0.3,0,0.6,0,1c0,0.4,0,0.8,0,1.4
			c0,0.5,0,1,0,1.6c0.3-0.1,0.6-0.1,0.9-0.1s0.6-0.1,1-0.1c0.4,0,0.7,0,1.1,0.1c0.4,0,0.7,0.1,1,0.2c0.3,0.1,0.6,0.3,0.9,0.4
			c0.3,0.2,0.5,0.4,0.7,0.6s0.4,0.5,0.5,0.9s0.2,0.7,0.2,1.2c0,0.4-0.1,0.8-0.2,1.2s-0.3,0.7-0.5,1s-0.5,0.6-0.7,0.8s-0.6,0.4-1,0.6
			c-0.3,0.2-0.7,0.3-1.1,0.3c-0.4,0.1-0.8,0.1-1.2,0.1c-0.3,0-0.6,0-0.9-0.1c-0.3,0-0.6-0.1-0.9-0.2l-1.2,0.2l-0.1,0
			c0-0.7,0.1-1.4,0.1-2s0-1.3,0.1-1.9c0-0.6,0-1.2,0.1-1.8c0-0.6,0-1.2,0-1.8c0-0.6,0-1.2,0-1.8S102.5,19.9,102.5,19.3z M103.8,24
			c0,0.5,0,1.1-0.1,1.6s0,1.1-0.1,1.5c0,0.5,0,0.9,0,1.4c0,0.4,0,0.8,0,1.1c0.6,0.2,1.2,0.3,1.8,0.3c0.5,0,0.9-0.1,1.3-0.2
			s0.7-0.4,1-0.7c0.3-0.3,0.5-0.6,0.6-1c0.1-0.4,0.2-0.8,0.2-1.2c0-0.5-0.1-1-0.3-1.4c-0.2-0.4-0.4-0.7-0.7-0.9s-0.6-0.4-1-0.5
			c-0.4-0.1-0.8-0.2-1.3-0.2c-0.2,0-0.4,0-0.7,0S104.1,23.9,103.8,24z"/>
	</g>
</g>
</svg>
