<?xml version="1.0" encoding="utf-8"?>
<!-- Generator: Adobe Illustrator 22.1.0, SVG Export Plug-In . SVG Version: 6.00 Build 0)  -->
<svg version="1.1" id="Layer_1" xmlns="http://www.w3.org/2000/svg" xmlns:xlink="http://www.w3.org/1999/xlink" x="0px" y="0px"
	 viewBox="0 0 107.6 47.1" style="enable-background:new 0 0 107.6 47.1;" xml:space="preserve">
<style type="text/css">
	.st0{fill:#575454;}
	.st1{enable-background:new    ;}
	.st2{fill:#FFFFFF;}
</style>
<title>Order</title>
<path class="st0" d="M5.8,0.1H104c2,0,3.5,0.1,3.5,0.1v42.3c0,2.4,0.1,4.6,0.1,4.6L5.2,47H0L0.2,4.2V0h2.4L5.8,0.1z"/>
<g class="st1">
	<path class="st2" d="M17.9,23.7c-0.2,0.1-0.4,0.2-0.6,0.3c-0.2,0.1-0.4,0.1-0.7,0.1c-0.2,0-0.3,0-0.5-0.1c-0.1,0-0.2-0.1-0.3-0.2
		c-0.1-0.1-0.1-0.2-0.2-0.2c0-0.1-0.1-0.2-0.1-0.3c0-0.1,0-0.3,0.1-0.4c0.1-0.1,0.1-0.2,0.3-0.3c0.1-0.1,0.2-0.1,0.4-0.2
		c0.1,0,0.3-0.1,0.4-0.1c0.2,0,0.3,0,0.5,0.1s0.3,0.1,0.5,0.2c0.3-0.1,0.6-0.3,0.8-0.5s0.4-0.4,0.6-0.6s0.3-0.5,0.4-0.7
		c0.1-0.3,0.1-0.6,0.1-0.9c0-0.4-0.1-0.7-0.2-1c-0.1-0.3-0.3-0.5-0.5-0.7c-0.2-0.2-0.4-0.3-0.7-0.4c-0.3-0.1-0.6-0.2-0.9-0.2
		c-0.3,0-0.6,0-0.9,0.1S16,17.9,15.7,18c-0.3,0.1-0.6,0.2-0.8,0.4S14.3,18.8,14,19c-0.1-0.1-0.2-0.2-0.2-0.2
		c-0.1-0.1-0.1-0.1-0.1-0.2c0,0,0-0.1,0-0.1c0,0,0.1-0.1,0.1-0.1c0.1-0.1,0.2-0.2,0.4-0.3c0.2-0.1,0.3-0.2,0.5-0.4
		c0.2-0.1,0.4-0.2,0.7-0.4s0.5-0.2,0.8-0.3s0.6-0.2,0.9-0.2c0.3-0.1,0.6-0.1,1-0.1c0.4,0,0.8,0.1,1.2,0.2c0.4,0.1,0.7,0.3,1,0.6
		s0.5,0.5,0.7,0.9c0.2,0.4,0.2,0.8,0.2,1.2c0,0.5-0.1,0.9-0.2,1.3c-0.2,0.4-0.4,0.7-0.7,1s-0.6,0.5-0.9,0.8s-0.7,0.4-1.1,0.6
		c0.6,0.1,1.1,0.2,1.6,0.4s0.8,0.4,1.1,0.7c0.3,0.3,0.5,0.6,0.6,1s0.2,0.7,0.2,1.1c0,0.3,0,0.6-0.1,1s-0.2,0.6-0.4,0.9
		c-0.2,0.3-0.4,0.5-0.7,0.8c-0.3,0.2-0.6,0.4-1,0.6c-0.4,0.2-0.8,0.3-1.3,0.4c-0.5,0.1-1,0.1-1.5,0.1c-0.4,0-0.8,0-1.2-0.1
		c-0.4-0.1-0.7-0.1-1-0.2c-0.3-0.1-0.5-0.2-0.7-0.3s-0.3-0.2-0.3-0.3c0-0.2,0-0.4,0-0.6c0-0.2,0-0.5,0-0.7s0-0.5,0-0.7s0-0.5,0-0.7
		l0.6,0c0,0.1,0,0.2,0,0.2s0,0.2,0,0.2c0,0.5,0.1,0.8,0.2,1.2s0.3,0.6,0.5,0.8s0.5,0.3,0.8,0.4c0.3,0.1,0.7,0.1,1.1,0.1
		c0.5,0,0.9-0.1,1.3-0.2c0.4-0.1,0.8-0.3,1.1-0.6s0.6-0.6,0.7-0.9c0.2-0.4,0.3-0.8,0.3-1.3c0-0.4-0.1-0.7-0.2-1s-0.3-0.6-0.4-0.8
		c-0.2-0.2-0.4-0.4-0.7-0.6C18.6,23.9,18.3,23.8,17.9,23.7z"/>
</g>
<g class="st1">
	<path class="st2" d="M24.6,26.9c-0.1,0.4-0.3,0.7-0.4,1c-0.1,0.3-0.2,0.5-0.3,0.7c-0.1,0.2-0.1,0.4-0.2,0.5
		c-0.1,0.2-0.1,0.3-0.2,0.4c-0.1,0.1-0.1,0.3-0.2,0.3c-0.1,0.1-0.2,0.1-0.2,0.2c-0.1,0-0.2,0.1-0.3,0.1s-0.2,0-0.3,0
		c-0.1,0-0.1,0-0.2,0c-0.1,0-0.2,0-0.3,0L22,30.1c0.4-1,0.9-1.9,1.3-2.8s0.8-1.7,1.2-2.5c-0.1-0.1-0.1-0.2-0.1-0.3
		c0-0.1,0.1-0.2,0.4-0.2c0.7-1.5,1.3-2.8,1.8-4s1-2.1,1.4-2.9c0-0.1,0.1-0.1,0.1-0.2s0.1-0.1,0.2-0.1c0.1,0,0.1,0,0.2-0.1
		c0.1,0,0.2,0,0.2,0c0.1,0,0.2,0,0.3,0c0.1,0,0.2,0.1,0.3,0.1c0.2,1.3,0.5,2.5,0.6,3.5c0.2,1,0.4,2,0.5,2.8s0.3,1.5,0.5,2.1
		c0.1,0.6,0.3,1.1,0.4,1.6s0.3,0.8,0.4,1.1c0.1,0.3,0.3,0.5,0.4,0.7s0.3,0.3,0.5,0.3s0.3,0.1,0.5,0.1c0.1,0,0.3,0,0.4,0
		c0.1,0,0.3-0.1,0.4-0.1l0.2,0.5c-0.4,0.2-0.8,0.4-1.2,0.5s-0.7,0.2-1,0.2c-0.2,0-0.3,0-0.5-0.1c-0.2-0.1-0.3-0.2-0.4-0.3
		c-0.1-0.2-0.3-0.4-0.4-0.6c-0.1-0.3-0.3-0.6-0.4-1c-0.1-0.4-0.3-0.9-0.4-1.4c-0.1-0.5-0.3-1.2-0.4-1.9c-0.7,0-1.4,0-2.1,0
		S26,24.9,25.3,25c-0.1,0.4-0.3,0.7-0.4,1.1C24.8,26.3,24.7,26.6,24.6,26.9z M29.3,24.1c-0.1-0.4-0.2-0.8-0.3-1.2s-0.2-0.9-0.3-1.4
		c-0.1-0.5-0.2-1-0.3-1.6c-0.1-0.5-0.2-1.1-0.3-1.7h0c-0.5,1.1-1,2.2-1.4,3.2c-0.4,1-0.8,1.9-1.1,2.8c0.6,0,1.3,0,1.9,0
		C28.1,24.1,28.7,24.1,29.3,24.1z"/>
</g>
<g class="st1">
	<path class="st2" d="M35.7,18.8c0-0.2,0-0.3,0-0.5c0-0.1-0.1-0.2-0.1-0.3c-0.1-0.1-0.2-0.1-0.3-0.2c-0.1,0-0.3-0.1-0.5-0.1
		c-0.2,0-0.6,0-0.9,0.1l-0.1-0.5c0.5-0.1,1-0.2,1.4-0.3c0.4-0.1,0.7-0.1,0.9-0.1c0.3,0,0.4,0,0.6,0.1c0.1,0.1,0.2,0.2,0.3,0.3
		c0.1,0.1,0.1,0.3,0.1,0.5c0,0.2,0,0.4,0,0.6c0,0.1,0,0.2,0,0.4c0,0.2,0,0.5,0,0.9c0,0.3,0,0.7,0,1.2c0,0.5,0,1,0,1.5s0,1.1-0.1,1.7
		c0,0.6,0,1.2-0.1,1.9c0,0.6,0,1.3-0.1,1.9s0,1.3-0.1,1.9l-1.3,0.2l-0.1,0c0-1.1,0.1-2.1,0.1-3.1s0.1-1.9,0.1-2.8
		c0-0.9,0-1.8,0.1-2.7C35.7,20.6,35.7,19.7,35.7,18.8z M37.2,23.5c0.7-0.6,1.3-1.1,1.9-1.6s1-0.9,1.4-1.3c0.4-0.4,0.7-0.7,1-1
		c0.3-0.3,0.5-0.6,0.6-0.8c0.2-0.3,0.3-0.5,0.3-0.8c0.1-0.2,0.1-0.5,0.1-0.8c0-0.1,0-0.3-0.1-0.4l0-0.1c0.2,0,0.3-0.1,0.5-0.1
		c0.1,0,0.3,0,0.4,0.1s0.2,0.1,0.3,0.2c0.1,0.1,0.2,0.2,0.2,0.3c0,0.1,0.1,0.2,0.1,0.4c0,0.1,0,0.3-0.1,0.5
		c-0.1,0.2-0.2,0.4-0.3,0.6s-0.4,0.5-0.6,0.7c-0.3,0.3-0.6,0.6-1,1s-0.8,0.8-1.4,1.2c-0.5,0.5-1.1,1-1.8,1.6
		c0.6,0.9,1.2,1.7,1.6,2.3s0.9,1.2,1.2,1.6c0.4,0.4,0.7,0.8,0.9,1.1s0.5,0.5,0.7,0.6c0.2,0.1,0.4,0.2,0.5,0.3c0.2,0,0.3,0.1,0.5,0.1
		c0.1,0,0.3,0,0.5,0c0.2,0,0.3-0.1,0.5-0.1l0.2,0.5c-0.2,0.1-0.4,0.2-0.6,0.3S44.2,29.9,44,30s-0.4,0.1-0.6,0.1
		c-0.2,0-0.3,0.1-0.4,0.1c-0.2,0-0.3,0-0.5-0.1c-0.2-0.1-0.4-0.2-0.6-0.4c-0.2-0.2-0.4-0.4-0.7-0.7c-0.3-0.3-0.6-0.7-0.9-1.1
		c-0.3-0.4-0.7-1-1.2-1.5s-0.9-1.3-1.5-2c-0.1-0.1-0.2-0.2-0.2-0.3S37.3,23.7,37.2,23.5L37.2,23.5z"/>
	<path class="st2" d="M46.6,26.9c-0.1,0.4-0.3,0.7-0.4,1c-0.1,0.3-0.2,0.5-0.3,0.7c-0.1,0.2-0.1,0.4-0.2,0.5
		c-0.1,0.2-0.1,0.3-0.2,0.4c-0.1,0.1-0.1,0.3-0.2,0.3c-0.1,0.1-0.2,0.1-0.2,0.2c-0.1,0-0.2,0.1-0.3,0.1s-0.2,0-0.3,0
		c-0.1,0-0.1,0-0.2,0c-0.1,0-0.2,0-0.3,0L44,30.1c0.4-1,0.9-1.9,1.3-2.8s0.8-1.7,1.2-2.5c-0.1-0.1-0.1-0.2-0.1-0.3
		c0-0.1,0.1-0.2,0.4-0.2c0.7-1.5,1.3-2.8,1.8-4s1-2.1,1.4-2.9c0-0.1,0.1-0.1,0.1-0.2s0.1-0.1,0.2-0.1c0.1,0,0.1,0,0.2-0.1
		c0.1,0,0.2,0,0.2,0c0.1,0,0.2,0,0.3,0c0.1,0,0.2,0.1,0.3,0.1c0.2,1.3,0.5,2.5,0.6,3.5c0.2,1,0.4,2,0.5,2.8s0.3,1.5,0.5,2.1
		c0.1,0.6,0.3,1.1,0.4,1.6s0.3,0.8,0.4,1.1c0.1,0.3,0.3,0.5,0.4,0.7s0.3,0.3,0.5,0.3s0.3,0.1,0.5,0.1c0.1,0,0.3,0,0.4,0
		c0.1,0,0.3-0.1,0.4-0.1l0.2,0.5c-0.4,0.2-0.8,0.4-1.2,0.5c-0.4,0.1-0.7,0.2-1,0.2c-0.2,0-0.3,0-0.5-0.1c-0.2-0.1-0.3-0.2-0.4-0.3
		c-0.1-0.2-0.3-0.4-0.4-0.6c-0.1-0.3-0.3-0.6-0.4-1c-0.1-0.4-0.3-0.9-0.4-1.4c-0.1-0.5-0.3-1.2-0.4-1.9c-0.7,0-1.4,0-2.1,0
		S48,24.9,47.3,25c-0.1,0.4-0.3,0.7-0.4,1.1C46.8,26.3,46.7,26.6,46.6,26.9z M51.3,24.1c-0.1-0.4-0.2-0.8-0.3-1.2s-0.2-0.9-0.3-1.4
		c-0.1-0.5-0.2-1-0.3-1.6c-0.1-0.5-0.2-1.1-0.3-1.7h0c-0.5,1.1-1,2.2-1.4,3.2c-0.4,1-0.8,1.9-1.1,2.8c0.6,0,1.3,0,1.9,0
		C50.1,24.1,50.7,24.1,51.3,24.1z"/>
	<path class="st2" d="M60.9,23.7c-0.2,0.1-0.4,0.2-0.6,0.3c-0.2,0.1-0.4,0.1-0.7,0.1c-0.2,0-0.3,0-0.5-0.1s-0.2-0.1-0.3-0.2
		c-0.1-0.1-0.2-0.2-0.2-0.2s-0.1-0.2-0.1-0.3c0-0.1,0-0.3,0.1-0.4c0.1-0.1,0.1-0.2,0.3-0.3c0.1-0.1,0.2-0.1,0.4-0.2s0.3-0.1,0.4-0.1
		c0.2,0,0.3,0,0.5,0.1c0.2,0,0.3,0.1,0.5,0.2c0.3-0.1,0.6-0.3,0.8-0.5c0.2-0.2,0.4-0.4,0.6-0.6c0.2-0.2,0.3-0.5,0.4-0.7
		c0.1-0.3,0.1-0.6,0.1-0.9c0-0.4-0.1-0.7-0.2-1c-0.1-0.3-0.3-0.5-0.5-0.7c-0.2-0.2-0.4-0.3-0.7-0.4c-0.3-0.1-0.6-0.2-0.9-0.2
		c-0.3,0-0.6,0-0.9,0.1c-0.3,0-0.6,0.1-0.8,0.2c-0.3,0.1-0.6,0.2-0.8,0.4c-0.3,0.2-0.6,0.4-0.9,0.6c-0.1-0.1-0.2-0.2-0.2-0.2
		c0-0.1-0.1-0.1-0.1-0.2c0,0,0-0.1,0-0.1c0,0,0.1-0.1,0.1-0.1c0.1-0.1,0.2-0.2,0.4-0.3c0.2-0.1,0.3-0.2,0.5-0.4
		c0.2-0.1,0.4-0.2,0.7-0.4s0.5-0.2,0.8-0.3c0.3-0.1,0.6-0.2,0.9-0.2c0.3-0.1,0.6-0.1,1-0.1c0.4,0,0.8,0.1,1.2,0.2
		c0.4,0.1,0.7,0.3,1,0.6c0.3,0.2,0.5,0.5,0.7,0.9c0.2,0.4,0.2,0.8,0.2,1.2c0,0.5-0.1,0.9-0.2,1.3c-0.2,0.4-0.4,0.7-0.7,1
		s-0.6,0.5-0.9,0.8c-0.4,0.2-0.7,0.4-1.1,0.6c0.6,0.1,1.1,0.2,1.6,0.4c0.4,0.2,0.8,0.4,1.1,0.7c0.3,0.3,0.5,0.6,0.6,1
		s0.2,0.7,0.2,1.1c0,0.3,0,0.6-0.1,1c-0.1,0.3-0.2,0.6-0.4,0.9c-0.2,0.3-0.4,0.5-0.7,0.8c-0.3,0.2-0.6,0.4-1,0.6
		c-0.4,0.2-0.8,0.3-1.3,0.4c-0.5,0.1-1,0.1-1.5,0.1c-0.4,0-0.8,0-1.2-0.1c-0.4-0.1-0.7-0.1-1-0.2c-0.3-0.1-0.5-0.2-0.7-0.3
		c-0.2-0.1-0.3-0.2-0.3-0.3c0-0.2,0-0.4,0-0.6c0-0.2,0-0.5,0-0.7c0-0.2,0-0.5,0-0.7c0-0.2,0-0.5,0-0.7l0.6,0c0,0.1,0,0.2,0,0.2
		s0,0.2,0,0.2c0,0.5,0.1,0.8,0.2,1.2c0.1,0.3,0.3,0.6,0.5,0.8s0.5,0.3,0.8,0.4s0.7,0.1,1.1,0.1c0.5,0,0.9-0.1,1.3-0.2
		c0.4-0.1,0.8-0.3,1.1-0.6s0.6-0.6,0.7-0.9c0.2-0.4,0.3-0.8,0.3-1.3c0-0.4-0.1-0.7-0.2-1c-0.1-0.3-0.3-0.6-0.4-0.8
		c-0.2-0.2-0.4-0.4-0.7-0.6C61.6,23.9,61.3,23.8,60.9,23.7z"/>
</g>
<g class="st1">
	<path class="st2" d="M67.5,26.9c-0.1,0.4-0.3,0.7-0.4,1c-0.1,0.3-0.2,0.5-0.3,0.7c-0.1,0.2-0.1,0.4-0.2,0.5
		c-0.1,0.2-0.1,0.3-0.2,0.4c-0.1,0.1-0.1,0.3-0.2,0.3c-0.1,0.1-0.2,0.1-0.2,0.2c-0.1,0-0.2,0.1-0.3,0.1c-0.1,0-0.2,0-0.3,0
		c-0.1,0-0.1,0-0.2,0s-0.2,0-0.3,0L65,30.1c0.4-1,0.9-1.9,1.3-2.8s0.8-1.7,1.2-2.5c-0.1-0.1-0.1-0.2-0.1-0.3c0-0.1,0.1-0.2,0.4-0.2
		c0.7-1.5,1.3-2.8,1.8-4s1-2.1,1.4-2.9c0-0.1,0.1-0.1,0.1-0.2c0.1,0,0.1-0.1,0.2-0.1c0.1,0,0.1,0,0.2-0.1c0.1,0,0.2,0,0.2,0
		c0.1,0,0.2,0,0.3,0c0.1,0,0.2,0.1,0.3,0.1c0.2,1.3,0.5,2.5,0.6,3.5c0.2,1,0.4,2,0.5,2.8c0.2,0.8,0.3,1.5,0.5,2.1s0.3,1.1,0.4,1.6
		s0.3,0.8,0.4,1.1c0.1,0.3,0.3,0.5,0.4,0.7c0.1,0.2,0.3,0.3,0.5,0.3c0.2,0.1,0.3,0.1,0.5,0.1c0.1,0,0.3,0,0.4,0
		c0.1,0,0.3-0.1,0.4-0.1l0.2,0.5c-0.4,0.2-0.8,0.4-1.2,0.5c-0.4,0.1-0.7,0.2-1,0.2c-0.2,0-0.3,0-0.5-0.1s-0.3-0.2-0.4-0.3
		c-0.1-0.2-0.3-0.4-0.4-0.6c-0.1-0.3-0.3-0.6-0.4-1c-0.1-0.4-0.3-0.9-0.4-1.4c-0.1-0.5-0.3-1.2-0.4-1.9c-0.7,0-1.4,0-2.1,0
		S69,24.9,68.2,25c-0.1,0.4-0.3,0.7-0.4,1.1C67.7,26.3,67.6,26.6,67.5,26.9z M72.2,24.1c-0.1-0.4-0.2-0.8-0.3-1.2s-0.2-0.9-0.3-1.4
		c-0.1-0.5-0.2-1-0.3-1.6c-0.1-0.5-0.2-1.1-0.3-1.7h0c-0.5,1.1-1,2.2-1.4,3.2c-0.4,1-0.8,1.9-1.1,2.8c0.6,0,1.3,0,1.9,0
		C71,24.1,71.6,24.1,72.2,24.1z"/>
</g>
<g class="st1">
	<path class="st2" d="M76.1,20.3l-0.6,0c0-0.5,0-0.9,0-1.2c0-0.4,0-0.7,0.1-0.9c0-0.3,0.1-0.5,0.2-0.6c0.1-0.2,0.3-0.3,0.5-0.4
		c0.2-0.1,0.5-0.1,0.8-0.1c0.2,0,0.5,0,0.7,0s0.6,0,0.9,0c0.3,0,0.6,0,0.9,0c0.3,0,0.6,0,0.9,0c0.5,0,1,0,1.3,0s0.7,0,1,0
		c0.3,0,0.6,0,0.8,0c0.2,0,0.4,0,0.6,0c0.2,0,0.4,0,0.5-0.1s0.3,0,0.5-0.1c0.1,0.2,0.1,0.3,0.1,0.4c0,0.2-0.1,0.4-0.3,0.6
		c-0.2,0.1-0.5,0.2-0.9,0.2c-0.4,0-0.8,0-1.4-0.1s-1.1-0.1-1.8-0.1c0,0.6,0,1.1,0,1.8c0,0.6,0,1.3-0.1,2s0,1.4-0.1,2.1
		c0,0.7,0,1.4-0.1,2.1s0,1.4-0.1,2.1s0,1.4-0.1,2l-1.3,0.2l-0.1,0c0-0.7,0.1-1.4,0.1-2.1c0-0.7,0.1-1.3,0.1-1.9s0-1.3,0.1-1.9
		s0-1.3,0-1.9c0-0.7,0-1.4,0-2.1c0-0.7,0-1.5,0-2.3c-0.2,0-0.4,0-0.7,0c-0.2,0-0.4,0-0.7,0s-0.4,0-0.6,0c-0.2,0-0.4,0-0.5,0.1
		s-0.3,0.1-0.4,0.2c-0.1,0.1-0.2,0.2-0.3,0.4c-0.1,0.2-0.2,0.4-0.2,0.7s-0.1,0.6-0.1,1V20.3z"/>
</g>
<g class="st1">
	<path class="st2" d="M87,18.8c0-0.2,0-0.3,0-0.5c0-0.1-0.1-0.2-0.1-0.3c-0.1-0.1-0.1-0.1-0.3-0.2c-0.1,0-0.3-0.1-0.4-0.1
		c-0.1,0-0.3,0-0.5,0c-0.2,0-0.4,0-0.6,0.1l-0.1-0.5c0.6-0.1,1-0.2,1.4-0.3c0.4-0.1,0.7-0.1,1-0.1c0.2,0,0.4,0,0.6,0.1
		s0.2,0.2,0.3,0.3c0.1,0.1,0.1,0.3,0.1,0.4c0,0.2,0,0.4,0,0.6c0,0.1,0,0.2,0,0.5c0,0.3,0,0.6,0,1c0,0.4,0,0.8,0,1.4c0,0.5,0,1,0,1.6
		c0.3-0.1,0.6-0.1,0.9-0.1s0.6-0.1,1-0.1c0.4,0,0.7,0,1.1,0.1c0.4,0,0.7,0.1,1,0.2c0.3,0.1,0.6,0.3,0.9,0.4c0.3,0.2,0.5,0.4,0.7,0.6
		s0.4,0.5,0.5,0.9s0.2,0.7,0.2,1.2c0,0.4-0.1,0.8-0.2,1.2s-0.3,0.7-0.5,1s-0.5,0.6-0.7,0.8s-0.6,0.4-1,0.6c-0.3,0.2-0.7,0.3-1.1,0.3
		c-0.4,0.1-0.8,0.1-1.2,0.1c-0.3,0-0.6,0-0.9-0.1c-0.3,0-0.6-0.1-0.9-0.2l-1.2,0.2l-0.1,0c0-0.7,0.1-1.4,0.1-2s0-1.3,0.1-1.9
		c0-0.6,0-1.2,0.1-1.8c0-0.6,0-1.2,0-1.8c0-0.6,0-1.2,0-1.8S87,19.4,87,18.8z M88.3,23.5c0,0.5,0,1.1-0.1,1.6s0,1.1-0.1,1.5
		c0,0.5,0,0.9,0,1.4c0,0.4,0,0.8,0,1.1c0.6,0.2,1.2,0.3,1.8,0.3c0.5,0,0.9-0.1,1.3-0.2s0.7-0.4,1-0.7c0.3-0.3,0.5-0.6,0.6-1
		c0.1-0.4,0.2-0.8,0.2-1.2c0-0.5-0.1-1-0.3-1.4c-0.2-0.4-0.4-0.7-0.7-0.9s-0.6-0.4-1-0.5c-0.4-0.1-0.8-0.2-1.3-0.2
		c-0.2,0-0.4,0-0.7,0S88.6,23.4,88.3,23.5z"/>
</g>
</svg>
