<svg id="Layer_1" data-name="Layer 1" xmlns="http://www.w3.org/2000/svg" viewBox="0 0 77.27 42.52"><defs><style>.cls-1,.cls-2{fill:#7f7e7c;}.cls-2,.cls-3,.cls-4{fill-rule:evenodd;}.cls-3{fill:#fff;}.cls-4{fill:#201600;}</style></defs><title>Main_logo</title><path class="cls-1" d="M72.21,38.32a.18.18,0,0,0,.24,0c.93-.7,0-2.53-.38-3.1l-.19.1c0,.06.77,2.07.33,2.7C72.11,38.18,72.16,38.28,72.21,38.32Z" transform="translate(-38.58 -24.6)"/><path class="cls-1" d="M72.36,54c.26-2.32-.59-3.64-.89-5.75a14,14,0,0,1,.24-6.54l-.2-.08A11.74,11.74,0,0,0,71,48.53c.39,2.12,1.09,3.06,1,5.49Z" transform="translate(-38.58 -24.6)"/><path class="cls-1" d="M71.69,39.27a4.71,4.71,0,0,1,2.74-.2,1.66,1.66,0,0,0-.54,2c.18.43.42.79.59,1.25a1.26,1.26,0,0,1-.39,1.32l.15.14a2,2,0,0,0,.67-2c-.29-.64-.38-.8-.58-1.25a1.24,1.24,0,0,1,.37-1.39c1.08.09,2.2.22,2.85-.62l-.09-.09c-.36.41-1.21.27-2.48.19s-2.48-.34-3.38.62Z" transform="translate(-38.58 -24.6)"/><path class="cls-1" d="M65.73,52.22a47.23,47.23,0,0,1,6.48-12.59L72,39.51a37.39,37.39,0,0,0-6.83,12.71Z" transform="translate(-38.58 -24.6)"/><path class="cls-1" d="M77.26,35.18c-.43.57-1.37,2.41-.39,3.1a.2.2,0,0,0,.25,0s.1-.14,0-.28c-.5-.67,0-2,.35-2.7Z" transform="translate(-38.58 -24.6)"/><path class="cls-1" d="M78.68,34.23a1.54,1.54,0,0,0-.41-.85c-.67-.75-1.61-.93-2.06-1.6a10,10,0,0,1-.52-2.68.57.57,0,0,1,.67.72c-.06.32,0,.48.19.57l.09-.11c-.11-.06-.16-.19-.07-.44s0-.84-.27-.94A1.68,1.68,0,0,0,77,26.38a1.11,1.11,0,0,1-.36-.6,1.23,1.23,0,0,0-.54-.88,2.4,2.4,0,0,0-2.74.3,1.81,1.81,0,0,0-1.62,1.89.93.93,0,0,0,.53.94,2.51,2.51,0,0,0,.1,1.18c.12.43.5,1.12,1,1.23a2.07,2.07,0,0,0,.44,0c.15,1.1-.12,1.32-.51,1.62a22.64,22.64,0,0,0-2,1.35,1.59,1.59,0,0,0-.4.87A1.52,1.52,0,0,0,69.6,35.8a1.23,1.23,0,0,0,1.1,1.34c0,1.65,0,2.76,0,3.32H71c.08-1.59.05-2.12.05-3.31a.76.76,0,0,0,.72-.48c0-.11.07-.33-.09-.36s-.24.1-.29.19-.1.27-.33.28a20.31,20.31,0,0,1,.06-2.11c1.53-.16,2.76,1.86,3.29,3h.44c.7-1.14,2-3.25,3.58-3.09a16.21,16.21,0,0,1-.11,2.2,1.61,1.61,0,0,1-.4-.17c-.14-.08-.24-.1-.33,0s0,.3.18.38a1.15,1.15,0,0,0,.51.19c-.1,1.17-.27,2.4-.32,3.48l.22,0c.12-1.34.3-2.53.41-3.5a1.42,1.42,0,0,0,1.31-1.46A1.44,1.44,0,0,0,78.68,34.23Zm-8,2.53c-.46,0-.68-.51-.68-1a1.12,1.12,0,0,1,.73-1C70.7,35.34,70.69,36,70.7,36.76Zm3.07-7.38a.15.15,0,0,0-.12.14,5.18,5.18,0,0,0,.07.65.86.86,0,0,1-.39,0,2.17,2.17,0,0,1-.67-1.05,2.73,2.73,0,0,1-.07-1.25c-.38-.08-.49-.4-.49-.74a1.52,1.52,0,0,1,1.34-1.64,1.14,1.14,0,0,0,0,1.13.84.84,0,0,0,.78.37c.06,0,.22,0,.28.07a.14.14,0,0,1,0,.17l.08,0a.27.27,0,0,0,0-.29c-.07-.12-.24-.14-.43-.14a.65.65,0,0,1-.62-.43,1,1,0,0,1,.56-1.31,1.78,1.78,0,0,1,1.67.1,1,1,0,0,1,.41.71,1.5,1.5,0,0,0,.41.71,1.45,1.45,0,0,1-1,2.24,1.76,1.76,0,0,1-1.69-1l-.08,0a1.71,1.71,0,0,0,1.52,1.2c.1.75.15,1.17.22,1.8a3.24,3.24,0,0,0-1.57.1c0-.51-.16-1.4-.17-1.51A.13.13,0,0,0,73.77,29.38Zm.85,7.45c-.73-1.2-1.84-2.66-3.45-2.58a1.24,1.24,0,0,1,.29-.61,18.82,18.82,0,0,1,2-1.34,1.41,1.41,0,0,0,.66-1,3.46,3.46,0,0,1,1.61-.1C76,32.71,77.13,32.6,78,33.55a1.3,1.3,0,0,1,.31.64C76.69,34.12,75.49,35.67,74.62,36.83Zm4,0a18.08,18.08,0,0,0,.12-2.15,1.1,1.1,0,0,1,.71,1.1A1,1,0,0,1,78.59,36.79Z" transform="translate(-38.58 -24.6)"/><path class="cls-1" d="M73.28,27.47a.33.33,0,0,0-.35.31l.15,0c0-.07.13-.15.19-.07a.54.54,0,0,1,0,.22,2.8,2.8,0,0,1-.06.7c0,.05,0,.12,0,.14s.09,0,.13-.11S73.73,27.5,73.28,27.47Z" transform="translate(-38.58 -24.6)"/><path class="cls-1" d="M76.85,39.43c2,4.48,1.13,7.73-2.63,13.48-2,3.53-7.34,10.65-5.35,14.21L69.1,67C67.37,64,73,56.58,74.79,53.53c5.94-8.74,2.63-12.83,2.28-14.21Z" transform="translate(-38.58 -24.6)"/><path class="cls-1" d="M64.63,57.22h-.46c-.27,3.5.52,6.67,3.15,8.67l.16-.21C65,63.71,64.29,60.63,64.63,57.22Z" transform="translate(-38.58 -24.6)"/><path class="cls-2" d="M81.13,52.28A28.87,28.87,0,0,0,78,45.34l-.06.49a27.82,27.82,0,0,1,2.75,6.45Z" transform="translate(-38.58 -24.6)"/><path class="cls-2" d="M81.34,56.32c.15,4.22-1.46,7.47-4.06,9.4l.09.15a10.35,10.35,0,0,0,4.45-9.55Z" transform="translate(-38.58 -24.6)"/><polygon class="cls-3" points="20.02 32.58 31.78 32.58 31.78 28.19 20.02 28.19 20.02 32.58 20.02 32.58"/><path class="cls-4" d="M53,46.64c.2-.31.34-.42.47-.42s.13.11.13.16A15.47,15.47,0,0,1,51.91,49,12.73,12.73,0,0,1,53,46.64Zm8.2.12c.17,0,.42,0,.42.25s-.77.73-2.46.78a3.4,3.4,0,0,1,2-1Zm10.58,8.06a3.17,3.17,0,0,1-2,1.7c-.67.13-1-.2-.76-.81a23.37,23.37,0,0,1,2-3h-.56a13.67,13.67,0,0,0-1.1,1.49c-.28.32-1.78,2-2.34,2-.16,0-.29-.11-.29-.4,0-.81,1.45-2.8,2.19-2.8.38,0,.4.53.4.53l.18-.2c0-.06,0-.63-.51-.63a3.8,3.8,0,0,0-2.42,1.93c-.32.33-1.58,1.59-2,1.59-.13,0-.15-.16-.15-.25,0-.6,1.9-3.15,2-3.27h-.56s-.24.29-.54.71c-.64.72-2.52,2.81-3,2.81-.19,0-.25-.13-.25-.33,0-.65,1.56-2.33,1.56-2.76,0-.15-.08-.27-.33-.52s-.2-.31-.16-.4.34-.45.34-.69c0-.07,0-.25-.18-.25s-.47.4-.56.61a.63.63,0,0,0,0,.33c-.24.33-1,1.34-1.64,2.22s-1.55,1.79-1.82,1.79S59,56.1,59,56c0-.49,1.71-2.89,2-3.27h-.56s-.67.89-1.21,1.75c-.48.51-1.67,1.75-2.1,1.77a.33.33,0,0,1-.34-.38c0-.81,1.28-2.76,2.22-2.76.27,0,.36.3.36.3l.2-.07s0-.63-.51-.63A3.86,3.86,0,0,0,56.7,54.4c-.58.63-1.81,1.88-2.31,1.88-.31,0-.29-.52-.29-.7,0-1,1.3-3.16,2.26-4.5a22.24,22.24,0,0,1,2.46-3h.07c.81,0,3-.2,3-1.12,0-.29-.16-.53-.72-.53a4.3,4.3,0,0,0-2.66,1.36c-2,.21-3.72,2.26-4.78,3.61s-3,4.81-3.45,4.81c-.2,0-.24-.25-.24-.44a27.17,27.17,0,0,1,1.44-5.71,16.76,16.76,0,0,0,2.37-3.75c0-.35-.18-.42-.34-.42s-.47.11-.76.49a30,30,0,0,0-2.12,4.25,27.82,27.82,0,0,1-2.34,2.71c-2.62,2.54-5.24,4.35-7.52,4.35a1.92,1.92,0,0,1-1.91-2.15c0-3.09,3.12-5,5.18-5,.8,0,1.18.32,1.18.94,0,.41-.39.76-1.24,1.34a1.33,1.33,0,0,0-.32,2l.09-.05a1.06,1.06,0,0,1,.26-1c.67-.67,1.66-1.23,1.66-2.11,0-1.11-.85-1.36-1.59-1.36-2.44,0-5.55,2.24-5.55,5.17,0,1.88,1.12,2.6,2.22,2.6,2.24,0,4.74-1.54,7.65-4.26a24.45,24.45,0,0,0,1.82-2,10.14,10.14,0,0,0-.76,3.16c0,1.63.53,1.77.74,1.77.71,0,1.54-1.84,3.65-4.84,1.74-2.47,3.15-3.36,4.25-3.62A23.33,23.33,0,0,0,56,50.56c-2.59,3.27-2.52,4.17-2.52,4.58,0,.6.29,1.49.8,1.49s1.41-.82,2-1.43a1.5,1.5,0,0,0,0,.29c0,.43.16,1.1.7,1.1s1.17-.66,1.69-1.19a1.28,1.28,0,0,0-.14.49c0,.25.17.7.6.7s1.3-.9,2-1.84,1.46-2,1.63-2.19l.09.11c.18.18.22.29.22.38,0,.29-1.54,2-1.54,2.74,0,.55.35.8.63.8.46,0,1.36-.86,2.07-1.63a2,2,0,0,0-.31.83c0,.37.11.8.5.8s1.4-.86,1.85-1.31a.9.9,0,0,0,0,.23c0,.43.09,1.1.63,1.1s1.2-.68,1.71-1.2a1.52,1.52,0,0,0-.14.81c.07.7.77.71,1.34.61a3.86,3.86,0,0,0,2.36-2Zm-4.93-3.33a.64.64,0,0,0,.54-.57.24.24,0,0,0-.24-.26c-.27,0-.5.35-.5.56s.09.27.2.27Z" transform="translate(-38.58 -24.6)"/><path class="cls-4" d="M108,53a.57.57,0,0,1-.16-.41c0-.32.07-.47.23-.47s.15.16.15.29A1.4,1.4,0,0,1,108,53ZM97.3,51.88a1.11,1.11,0,0,1-.21-.57.7.7,0,0,1,.52-.68c.13,0,.2.1.2.29a2,2,0,0,1-.51,1Zm-2.6,2.25c-.23,0-.3-.18-.3-.38s.16-.61.3-.63.2.07.2.29a1.92,1.92,0,0,1-.2.72Zm-7.08,5.35c-1.26,2.37-2.47,3.05-2.78,3.05s-.27-.18-.27-.34c0-.78.45-1.9,2.11-3.34.57-.5,1.4-1.16,2.25-1.83-.47.88-.93,1.76-1.31,2.46Zm-10.27.81c-.9,1.14-1.77,1.9-2.3,1.9-.14,0-.21-.07-.21-.24,0-.43.29-1.35,1.73-2.76a31.63,31.63,0,0,1,2.85-2.31,18.36,18.36,0,0,1-2.07,3.41Zm6.9-13.1c0,.8-.92,1.61-2,2.17a13.12,13.12,0,0,1-3.5,1.09c1.22-1.64,2.5-3.64,4.91-3.75.34,0,.61.12.59.49Zm-2.31,5.53c.07,0,.06.09.06.15s-.36.58-1,1.22c.16-.33.61-1.36,1-1.37Zm21,.33a.13.13,0,0,1,.15.14,3.18,3.18,0,0,1-1.92,1.45c.58-.89,1.3-1.59,1.77-1.59Zm11-3.38c-1.85,0-2.43.71-4.33.71a1.7,1.7,0,0,1-1.33-.41l-.08.07a1.7,1.7,0,0,0,1.64.85c1.61,0,2.27-.88,4.08-.88s1.77,1.93,1.07,3.2-2.4,3.09-3.89,3.09c-.42,0-.42-.2-.42-.33,0-.59,1.88-3,2-3.21h-.56a16.66,16.66,0,0,0-1.41,1.94c-.52.56-1.6,1.64-2.06,1.64-.16,0-.3-.09-.3-.38,0-.82,1.31-3,2.25-3,.31,0,.4.51.4.51l.22-.18c0-.06-.07-.62-.56-.62a2.19,2.19,0,0,0-1.16.52,4.39,4.39,0,0,1-.74.08,1.21,1.21,0,0,1-.53-.12,1.92,1.92,0,0,0,.28-.88c0-.28-.11-.45-.36-.45s-.56.31-.56.74a.85.85,0,0,0,.28.67,14.42,14.42,0,0,1-1.06,1.36c-.58.65-1.54,1.73-2.13,1.73-.13,0-.25-.09-.25-.31,0-.48,1.48-2.33,1.48-2.78s-.38-.56-.49-.56c-.45,0-1.05.67-2.1,1.81-.59.63-1.82,1.77-2.29,1.77-.2,0-.31-.11-.31-.27A2.21,2.21,0,0,1,101,55c1.24-.23,2.42-1.32,2.42-1.88,0-.18-.13-.36-.44-.36-1,0-2.25,1.25-2.66,2.38a5,5,0,0,1-1.74,1.18c-.13,0-.26,0-.26-.31,0-.59,1.88-3.11,2-3.23h-.59s-.71.92-1.23,1.78c-.73.7-1.9,1.74-2.37,1.74-.07,0-.16-.05-.16-.2,0-.5,1.84-2.58,1.84-3.12a1.59,1.59,0,0,0-.35-.83,2.27,2.27,0,0,0,.66-1.27c0-.22-.06-.54-.45-.54a1,1,0,0,0-.87,1,1.42,1.42,0,0,0,.3.8h0A6.3,6.3,0,0,1,95,54.09a2,2,0,0,0,.18-.77c0-.31-.14-.49-.4-.49-.48,0-.7.58-.7.9a.67.67,0,0,0,.44.7c-.56.94-1.62,2-2.12,2s-.38-.34-.38-.52c0-.71,1.16-2.88,2-2.88a.8.8,0,0,1,.22,0l0-.23s0,0-.27,0A3.22,3.22,0,0,0,92,54.39L90.12,55.8c.81-1.56,1.51-2.94,1.58-3h-.52l-.85,1.59c-.4.44-1.87,2-2.29,2-.2,0-.24-.21-.24-.36,0-.56,1-3,2.1-3a.47.47,0,0,1,.43.29l.13-.25a.51.51,0,0,0-.53-.35,3.42,3.42,0,0,0-2.22,1.79c-.52.61-1.57,1.79-2,1.79-.2,0-.27-.11-.27-.31,0-.59,1.9-3.11,2-3.23h-.6s-.45.59-.92,1.27c-.66.75-2,2.23-2.44,2.23-.16,0-.23-.1-.23-.3,0-.65,1.57-2.35,1.57-2.79,0-.14.05-.23-.23-.45s-.22-.23-.22-.32.45-.53.45-.76c0-.07,0-.24-.2-.24s-.45.35-.54.56a1.28,1.28,0,0,0-.12.53,26.39,26.39,0,0,1-3.76,3.44c.17-.43.32-.83.5-1.25.93-.86,1.59-1.42,1.56-1.92a.3.3,0,0,0-.32-.31c-.31,0-.6.31-.91.81-.1.17-.35.66-.7,1.43l0,0c-.83.78-2.59,2.22-3.16,2.22s-.72-.59-.72-1a15.38,15.38,0,0,1,2.11-5.21,12,12,0,0,0,3.82-1.18c1.29-.66,2.16-1.52,2.21-2.42,0-.68-.57-.77-1.08-.73-2.41.18-4.42,2.36-5.72,4.15-.69.09-3.15-.21-3.77-1.35a1.44,1.44,0,0,1,0-1.63,1.18,1.18,0,0,1,1.49-.1l.12-.23a1.44,1.44,0,0,0-1.77.12,1.66,1.66,0,0,0-.19,2c.66,1.19,2.75,1.49,3.92,1.46a11.41,11.41,0,0,0-1.74,4.56c0,1.46.74,1.84,1.25,1.84s2.15-1.27,3-2c-.15.34-.3.71-.47,1.12-1.18.89-2.48,1.87-3.27,2.6s-1.84,2-1.84,3c0,.15.09.54.47.54a3.72,3.72,0,0,0,2.17-1.25A14,14,0,0,0,80,56.45a33.09,33.09,0,0,0,4.07-3.71l0,0c.21.14.19.23.19.32,0,.29-1.57,2.08-1.57,2.84a.66.66,0,0,0,.65.72c.42,0,1.15-.67,1.76-1.33a1.62,1.62,0,0,0-.17.56.68.68,0,0,0,.69.77c.47,0,1.21-.75,1.73-1.35a2,2,0,0,0,0,.34c0,.6.21,1,.61,1s1.42-.92,1.92-1.47l-.7,1.33c-1.14.87-2.26,1.74-2.68,2.09-.69.56-2.26,2.1-2.26,3.53,0,.49.22.7.52.7.53,0,1.79-.63,3.2-3,.46-.79,1.19-2.17,1.88-3.5l1.87-1.43a2.21,2.21,0,0,0-.19.84.91.91,0,0,0,.81,1c.73,0,1.91-1.14,2.49-2.23.89-.12,2-1.49,2.42-2.06a.58.58,0,0,1,.12.3c0,.39-1.92,2.62-1.92,3.25,0,.43.27.7.53.7a4.6,4.6,0,0,0,2.09-1.33,1.36,1.36,0,0,0-.14.5c0,.4.12.81.61.81a4.11,4.11,0,0,0,1.68-1,1.5,1.5,0,0,0,0,.2.75.75,0,0,0,.65.83c.74,0,1.9-1.15,2.55-1.82s1.65-1.84,2-1.84a.16.16,0,0,1,.17.16c0,.32-1.54,2-1.54,2.76a.68.68,0,0,0,.63.76c.6,0,1.45-.76,2.39-1.86a14.06,14.06,0,0,0,1.06-1.37,1.44,1.44,0,0,0,.65.14l.37,0a3.14,3.14,0,0,0-1.16,2c0,.43.12,1.1.67,1.1s1.16-.64,1.68-1.16a.79.79,0,0,0-.07.3.81.81,0,0,0,.83.86c1.67,0,3.52-1.9,4.32-3.31s.78-3.73-1.43-3.66ZM88,51.52a.64.64,0,0,0,.54-.57.24.24,0,0,0-.24-.26c-.27,0-.5.35-.5.56s.09.27.2.27Zm12.7.09a.64.64,0,0,0,.54-.58.23.23,0,0,0-.24-.25c-.27,0-.5.34-.5.56s.09.27.2.27Z" transform="translate(-38.58 -24.6)"/></svg>